<svg width="32" height="32" viewBox="0 0 32 32" fill="none" xmlns="http://www.w3.org/2000/svg">
<path d="M1 12.2221C1 13.3945 1.95061 14.3445 3.12246 14.3445H14.4893V7.00482H3.12246C1.95006 7.00482 1 7.95488 1 9.12728V12.2221Z" fill="url(#paint0_linear_110_3350)"/>
<path d="M27.9975 7.00468H16.6307V14.3448H27.9975C29.1699 14.3448 30.1199 13.3942 30.1199 12.2224V9.12774C30.1199 7.95479 29.1699 7.00472 27.9975 7.00472V7.00468Z" fill="url(#paint1_linear_110_3350)"/>
<path d="M2.63631 29.3314C2.63631 30.805 3.83133 32 5.30493 32H14.4897V15.6447H2.63644L2.63631 29.3314Z" fill="url(#paint2_linear_110_3350)"/>
<path d="M16.6302 31.9999H25.815C27.2885 31.9999 28.4836 30.8048 28.4836 29.3312V15.6449H16.6303L16.6302 31.9999Z" fill="url(#paint3_linear_110_3350)"/>
<path d="M8.05419 5.76561C8.42326 5.97143 9.17363 6.24515 11.4218 6.24515C12.661 6.24515 13.7573 6.16074 13.8036 6.15678C14.0518 6.13739 14.2741 5.99515 14.3956 5.77712C14.517 5.5598 14.5213 5.29542 14.4072 5.07418C14.0674 4.41488 12.309 1.09127 11.0511 0.390084C10.5937 0.135236 10.0763 0 9.55491 0C8.43873 0 7.40822 0.605236 6.86528 1.57953C6.03807 3.06154 6.57164 4.93959 8.05419 5.76556L8.05419 5.76561ZM8.16392 2.30408C8.44481 1.80086 8.97716 1.48817 9.55416 1.48817C9.8223 1.48817 10.0894 1.55768 10.3261 1.6895C10.7878 1.94669 11.7235 3.31933 12.5302 4.73564C12.1964 4.74785 11.8152 4.75719 11.4218 4.75719C9.45325 4.75719 8.90097 4.53431 8.77849 4.46642C8.01271 4.03916 7.73735 3.06931 8.16392 2.30408Z" fill="url(#paint4_linear_110_3350)"/>
<path d="M17.3166 6.15687C17.3624 6.16082 18.4587 6.24523 19.6985 6.24523C21.9466 6.24523 22.697 5.97153 23.0661 5.7657C24.5479 4.93973 25.0815 3.06172 24.2555 1.57985C23.7126 0.605559 22.6821 0.00032201 21.5659 0.00032201C21.0445 0.00032201 20.5275 0.13502 20.0697 0.390406C18.8118 1.09173 17.0534 4.41515 16.7136 5.0745C16.5993 5.2963 16.6038 5.55997 16.7252 5.77744C16.8461 5.99475 17.0684 6.13753 17.3166 6.15693L17.3166 6.15687ZM20.7936 1.6896C21.0303 1.55777 21.2968 1.48827 21.5655 1.48827C22.1426 1.48827 22.6751 1.80113 22.9558 2.30417C23.3823 3.06945 23.107 4.03924 22.3412 4.46632C22.2187 4.53474 21.6664 4.75708 19.6979 4.75708C19.3046 4.75708 18.9238 4.74774 18.5895 4.73553C19.3962 3.31922 20.3324 1.94716 20.7936 1.6896Z" fill="url(#paint5_linear_110_3350)"/>
<defs>
<linearGradient id="paint0_linear_110_3350" x1="2.11441" y1="-0.742267" x2="31.3793" y2="28.3162" gradientUnits="userSpaceOnUse">
<stop stop-color="#E16BFF"/>
<stop offset="1" stop-color="#FB3B80"/>
</linearGradient>
<linearGradient id="paint1_linear_110_3350" x1="2.11441" y1="-0.742267" x2="31.3793" y2="28.3162" gradientUnits="userSpaceOnUse">
<stop stop-color="#E16BFF"/>
<stop offset="1" stop-color="#FB3B80"/>
</linearGradient>
<linearGradient id="paint2_linear_110_3350" x1="2.11441" y1="-0.742267" x2="31.3793" y2="28.3162" gradientUnits="userSpaceOnUse">
<stop stop-color="#E16BFF"/>
<stop offset="1" stop-color="#FB3B80"/>
</linearGradient>
<linearGradient id="paint3_linear_110_3350" x1="2.11441" y1="-0.742267" x2="31.3793" y2="28.3162" gradientUnits="userSpaceOnUse">
<stop stop-color="#E16BFF"/>
<stop offset="1" stop-color="#FB3B80"/>
</linearGradient>
<linearGradient id="paint4_linear_110_3350" x1="2.11441" y1="-0.742267" x2="31.3793" y2="28.3162" gradientUnits="userSpaceOnUse">
<stop stop-color="#E16BFF"/>
<stop offset="1" stop-color="#FB3B80"/>
</linearGradient>
<linearGradient id="paint5_linear_110_3350" x1="2.11441" y1="-0.742267" x2="31.3793" y2="28.3162" gradientUnits="userSpaceOnUse">
<stop stop-color="#E16BFF"/>
<stop offset="1" stop-color="#FB3B80"/>
</linearGradient>
</defs>
</svg>
