<svg width="61" height="45" viewBox="0 0 61 45" fill="none" xmlns="http://www.w3.org/2000/svg">
<path d="M14.2267 11.7868V11.8846C14.2269 11.8873 14.2269 11.8899 14.2267 11.8926C14.2261 11.8953 14.2261 11.898 14.2267 11.9007C14.2342 11.9327 14.2442 11.9643 14.2565 11.995L14.2624 12.0065C14.2747 12.0343 14.2892 12.0612 14.3053 12.087V12.0974C14.3229 12.1225 14.342 12.1467 14.3624 12.1699L14.3755 12.1837C14.3966 12.2063 14.4194 12.2274 14.4434 12.2469L14.4565 12.2561C14.4823 12.2755 14.5093 12.2931 14.5375 12.3091C14.5649 12.3236 14.5937 12.3359 14.6233 12.3459H14.6375C14.6612 12.3541 14.6856 12.3606 14.7102 12.3654C17.8565 13.0326 17.8899 17.8203 17.8899 17.887V17.9491C17.8899 17.9583 17.8899 17.9825 17.897 17.9997C17.9042 18.017 17.897 18.0066 17.897 18.0101C17.9587 18.3038 18.2261 18.5151 18.5365 18.5151C18.7523 18.5153 18.9541 18.4117 19.0748 18.239C19.0859 18.2235 19.0963 18.2074 19.1058 18.1907C19.1141 18.1757 19.1225 18.1596 19.1296 18.1435V18.1355C19.1368 18.1205 19.1427 18.1052 19.1475 18.0895V18.078C19.1475 18.063 19.1558 18.0492 19.1594 18.0342C19.163 18.0193 19.1594 18.0227 19.1594 18.017V17.8835C19.1594 17.7593 19.2023 13.0326 22.3391 12.3679C22.3633 12.3631 22.3873 12.3565 22.4105 12.3483H22.426C22.4554 12.3385 22.4836 12.3262 22.5106 12.3115C22.5391 12.2956 22.5665 12.2779 22.5927 12.2586L22.6046 12.2494C22.6294 12.23 22.6525 12.2089 22.6737 12.1861L22.6856 12.1723C22.7067 12.1497 22.7259 12.1255 22.7428 12.0998L22.7499 12.0895C22.7658 12.0636 22.7797 12.0367 22.7916 12.0089C22.7922 12.0051 22.7922 12.0013 22.7916 11.9974C22.8043 11.9668 22.8146 11.9353 22.8226 11.9031V11.8951C22.823 11.8924 22.823 11.8897 22.8226 11.887C22.8226 11.8744 22.8226 11.8617 22.8297 11.8491V11.6707C22.8297 11.6581 22.8297 11.6454 22.8226 11.6328C22.823 11.6301 22.823 11.6274 22.8226 11.6247V11.6075C22.8226 11.6017 22.8226 11.5845 22.813 11.573L22.8023 11.5442L22.7916 11.5166L22.7773 11.4855C22.7773 11.4775 22.769 11.4694 22.7642 11.4625C22.7595 11.4556 22.7523 11.4418 22.7464 11.4315L22.7321 11.4096C22.7249 11.4004 22.719 11.3912 22.7118 11.3832C22.7047 11.3751 22.6987 11.3659 22.6928 11.3579L22.6749 11.3383L22.6475 11.3107L22.6332 11.298L22.5963 11.267L22.5892 11.2612C22.5737 11.2509 22.5594 11.2394 22.5427 11.2302C22.5082 11.2083 22.4715 11.1899 22.4332 11.175L22.376 11.1554C22.3633 11.1508 22.35 11.1473 22.3367 11.145C19.1903 10.4778 19.157 5.69021 19.157 5.62346V5.58665C19.1576 5.5786 19.1576 5.57055 19.157 5.56249C19.1554 5.54543 19.1526 5.52856 19.1487 5.51188C19.1493 5.50805 19.1493 5.50421 19.1487 5.50038C19.0919 5.23427 18.8656 5.03296 18.5866 5H18.3568L18.3127 5.0115H18.2996C18.2837 5.0163 18.2682 5.02205 18.2531 5.02876H18.2472C18.0751 5.10353 17.9449 5.24655 17.8899 5.42102C17.8836 5.44019 17.8784 5.45994 17.8744 5.47969V5.49234C17.8744 5.49694 17.8685 5.52455 17.8673 5.54181C17.8661 5.55906 17.8673 5.55791 17.8673 5.56596V5.60277C17.8673 5.66719 17.834 10.4548 14.6876 11.1244C14.5713 11.1487 14.4641 11.2035 14.378 11.2831L14.3399 11.3211L14.3315 11.3314C14.322 11.3429 14.3125 11.3533 14.3041 11.3648L14.2899 11.3832L14.2708 11.4142L14.2565 11.4373C14.2506 11.4476 14.2458 11.4568 14.241 11.4672C14.2363 11.4775 14.2327 11.4844 14.2279 11.4936L14.216 11.5247C14.2122 11.5333 14.2091 11.5421 14.2065 11.5511C14.2025 11.5628 14.1993 11.5747 14.197 11.5868C14.1964 11.5922 14.1964 11.5975 14.197 11.6029C14.1972 11.6056 14.1972 11.6083 14.197 11.6109V11.7386C14.197 11.749 14.2267 11.7741 14.2267 11.7868ZM18.5711 9.07892C18.9653 10.0923 19.5976 11.1024 20.6123 11.758C19.5976 12.4126 18.9653 13.4226 18.5711 14.436C18.1769 13.4226 17.5445 12.4125 16.5311 11.758C17.5445 11.0966 18.1769 10.0901 18.5711 9.07661V9.07892Z" fill="url(#paint0_linear_1105_1444)"/>
<path d="M56.9388 35.4835C58.0619 31.5723 50.7952 25.5009 42.9733 21.5504C38.5336 19.3084 34.0478 17.7682 30.3355 17.216C26.3948 16.627 23.7188 17.2379 22.7996 18.9346L19.8831 24.3252C19.5846 24.8965 19.4792 25.5437 19.5818 26.1761C11.2457 26.4648 3 28.739 3 32.6385V38.5051C3 42.7234 12.5155 45 21.4685 45C29.1512 45 35.8202 43.4528 38.5792 41.0452C42.6592 42.6131 46.2355 43.4045 48.928 43.4045C51.3634 43.4045 53.0771 42.7569 53.7833 41.4489L56.8618 35.7616C56.9094 35.6759 56.9357 35.5809 56.9388 35.4835ZM27.643 18.262C28.4807 18.2684 29.3167 18.3364 30.1439 18.4656C33.7165 18.9994 38.0608 20.4925 42.3721 22.6701C51.6778 27.3692 56.7818 33.1886 55.5506 35.4733C54.9302 36.6237 52.621 37.0147 49.3735 36.5293C48.1073 36.3338 46.8561 36.0571 45.6281 35.7011C45.5686 35.6744 45.505 35.6566 45.4399 35.6482C42.8116 34.8866 39.9726 33.7524 37.1455 32.3249C27.8398 27.6258 22.7358 21.8049 23.967 19.5207C24.4041 18.6959 25.7224 18.2599 27.6338 18.2599L27.643 18.262ZM48.2064 42.0922C46.8119 42.0117 45.1708 41.7322 43.3773 41.2628L45.6698 37.0273C46.818 37.3439 47.9847 37.5941 49.1639 37.7762C49.6132 37.8429 50.0451 37.8939 50.4596 37.9292L48.2064 42.0922ZM38.6792 39.7145C38.3493 39.5845 38.0171 39.4488 37.686 39.3096L39.994 35.0442C41.4336 35.6529 42.9041 36.1904 44.4003 36.6546L42.1019 40.9016C40.9943 40.5726 39.8475 40.1758 38.6757 39.7144L38.6792 39.7145ZM29.6536 38.4859V43.0758C28.1761 43.326 26.6863 43.5026 25.1901 43.6049V39.0036C26.686 38.9037 28.1757 38.731 29.6536 38.4859ZM27.7267 27.805L25.439 32.0325C24.3779 31.1575 23.4016 30.1906 22.5225 29.144L24.7674 24.9959C25.6746 26.007 26.6642 26.9463 27.7267 27.805ZM22.108 30.6187C23.2333 31.861 24.691 33.1494 26.3952 34.4148C24.7575 34.577 23.1123 34.6569 21.4661 34.6541C13.8108 34.6541 10.2357 33.1886 10.1691 32.6329C10.2358 32.0762 13.8097 30.6107 21.4661 30.6107C21.6888 30.6141 21.896 30.6164 22.108 30.6187ZM26.4642 32.8607L28.7591 28.6217C30.0899 29.6329 31.4771 30.5729 32.9141 31.4378L30.605 35.7032C29.1697 34.8328 27.7871 33.8837 26.4642 32.8607ZM34.2191 37.7117C33.3628 37.2791 32.528 36.8282 31.7182 36.3646L34.0285 32.0969C34.8479 32.5662 35.6839 33.0172 36.5294 33.4428C37.2844 33.8247 38.0419 34.1848 38.7921 34.5241L36.4818 38.793C35.7275 38.4525 34.9733 38.092 34.2191 37.7117ZM30.9608 38.2443C31.3288 38.1695 31.6884 38.089 32.0433 38.005C32.5562 38.2857 33.0798 38.561 33.6141 38.8309C34.805 39.4326 36.0114 39.9813 37.2094 40.4874C35.8375 41.456 33.6487 42.2589 30.9606 42.8238L30.9608 38.2443ZM21.0419 24.9076L22.7246 21.8017C23.0112 22.5513 23.403 23.2591 23.8893 23.9056L21.6886 27.9789C21.4087 27.5466 21.184 27.083 21.0193 26.5985C20.793 25.9152 20.8037 25.347 21.0419 24.9076ZM19.9343 27.4314C20.2323 28.1149 20.612 28.7623 21.0657 29.3605C16.6213 29.4008 8.86485 30.1221 8.86485 32.6424C8.86485 35.2387 17.1095 35.9255 21.4681 35.9255C23.6298 35.9341 25.7895 35.7953 27.9314 35.5102C28.715 36.0409 29.5363 36.5616 30.3953 37.0723L30.2631 37.0942C30.2072 37.0978 30.1518 37.1086 30.0988 37.1264C27.2533 37.635 24.3642 37.8837 21.471 37.8695C11.358 37.8695 4.30889 35.1087 4.30889 32.638C4.30174 30.3178 10.5738 27.6925 19.9343 27.4314ZM11.3137 38.1065V42.6629C10.0193 42.3705 8.75505 41.966 7.53613 41.4539V36.9964C8.76313 37.4615 10.0263 37.8327 11.3137 38.1065ZM12.6236 38.3687C14.2133 38.6544 15.8178 38.8572 17.4301 38.9761V43.5774C15.8164 43.4572 14.2115 43.2452 12.6236 42.9424V38.3687ZM4.30173 38.4987V35.1628C4.8825 35.6616 5.52872 36.0843 6.22382 36.4201V40.7971C4.98768 40.0643 4.30173 39.2683 4.30173 38.4987ZM18.7342 43.6625V39.0612C19.6441 39.1072 20.5599 39.1314 21.4733 39.1314C22.2878 39.1314 23.0929 39.1133 23.8884 39.0773V43.6786C23.0945 43.7147 22.2894 43.7327 21.4733 43.7327C20.5301 43.7315 19.6167 43.7074 18.7342 43.6625ZM52.626 40.8592C52.2235 41.6023 51.1767 42.0095 49.6774 42.0981L51.8996 37.9937C52.7203 38.004 53.5386 37.9074 54.3326 37.7061L52.626 40.8592Z" fill="url(#paint1_linear_1105_1444)"/>
<path d="M38.1223 30.492C41.0996 31.9955 44.0424 33.1527 46.4107 33.7508C47.5647 34.043 48.515 34.1891 49.2688 34.1891C50.3228 34.1891 50.9945 33.905 51.3041 33.3344C51.8341 32.3555 51.0362 31.0073 48.8663 29.2139C47.0049 27.6759 44.3409 26.0022 41.3635 24.4976C37.3728 22.4845 29.47 19.2867 28.1876 21.6562C26.9051 24.0258 34.128 28.4733 38.1223 30.492ZM29.3421 22.242C29.41 22.1155 29.6767 22.0418 30.1269 22.0418C31.6834 22.0418 35.4357 22.9276 40.7617 25.6182C43.652 27.078 46.229 28.6953 48.0176 30.1735C50.0195 31.8277 50.2077 32.6375 50.1469 32.7491C50.0862 32.8607 49.2906 33.1747 46.7421 32.5305C44.4652 31.9554 41.6214 30.8338 38.7276 29.3741C31.8691 25.9069 29.042 22.8031 29.3468 22.2421L29.3421 22.242Z" fill="url(#paint2_linear_1105_1444)"/>
<defs>
<linearGradient id="paint0_linear_1105_1444" x1="5.06862" y1="4.07217" x2="39.0556" y2="54.187" gradientUnits="userSpaceOnUse">
<stop stop-color="#E16BFF"/>
<stop offset="1" stop-color="#FB3B80"/>
</linearGradient>
<linearGradient id="paint1_linear_1105_1444" x1="5.06862" y1="4.07217" x2="39.0556" y2="54.187" gradientUnits="userSpaceOnUse">
<stop stop-color="#E16BFF"/>
<stop offset="1" stop-color="#FB3B80"/>
</linearGradient>
<linearGradient id="paint2_linear_1105_1444" x1="5.06862" y1="4.07217" x2="39.0556" y2="54.187" gradientUnits="userSpaceOnUse">
<stop stop-color="#E16BFF"/>
<stop offset="1" stop-color="#FB3B80"/>
</linearGradient>
</defs>
</svg>
