<svg width="40" height="44" viewBox="0 0 40 44" fill="none" xmlns="http://www.w3.org/2000/svg">
<path d="M15.9889 11.0001C12.0148 11.0001 8.42996 11.4327 5.76738 12.1758C4.43609 12.5474 3.3381 12.9897 2.50246 13.5428C1.71284 14.0657 1.08249 14.7737 1.01458 15.6618C1.01413 15.6665 1.01481 15.6708 1.01458 15.6754H1.01436C1.00615 15.7206 1.0016 15.7663 1.00068 15.8119V19.6807C0.999772 19.7036 0.999772 19.7264 1.00068 19.7493V23.6728V23.6725V23.6861V31.5606C1.00068 32.5232 1.62648 33.274 2.44708 33.9119C3.26767 34.5497 4.36292 35.1062 5.69829 35.5933C8.36886 36.5677 11.982 37.2475 15.9892 37.2475C18.885 37.2475 21.4205 36.9042 23.69 36.3452L23.6897 36.3454C23.9974 36.2722 24.2423 36.0415 24.3322 35.7405C24.4219 35.4395 24.3433 35.1139 24.1255 34.8861C23.9078 34.6584 23.584 34.5632 23.2766 34.6365C21.142 35.1623 18.7455 35.4979 15.9889 35.4979C12.181 35.4979 8.73331 34.8393 6.30409 33.9531C5.08971 33.5098 4.13826 33.0139 3.53504 32.5451C2.93182 32.0764 2.76363 31.6888 2.76363 31.5608V30.5492C3.55756 31.1166 4.55801 31.5591 5.72548 31.9436C8.41134 32.8278 12.0091 33.3106 15.989 33.3106C18.5889 33.3106 20.6033 33.2597 22.7668 32.8594V32.8592C23.0747 32.7984 23.327 32.5802 23.4295 32.2857C23.532 31.9913 23.4694 31.665 23.2649 31.4284C23.0605 31.1921 22.7449 31.0811 22.4361 31.1367C20.4385 31.5062 18.5648 31.5605 15.9891 31.5605C12.1538 31.5605 8.69036 31.0838 6.27688 30.2891C5.06997 29.8918 4.1327 29.4035 3.54932 28.9221C2.96593 28.4407 2.76402 28.0375 2.76402 27.6234V26.5571C3.5632 27.1383 4.54014 27.6159 5.72587 28.0062C8.41173 28.8904 12.0095 29.3732 15.9894 29.3732C19.3095 29.3732 21.69 29.0887 24.1446 28.4709C24.372 28.4137 24.5671 28.269 24.6867 28.0688C24.8064 27.8685 24.8408 27.6292 24.782 27.4038C24.7234 27.1783 24.5766 26.9854 24.3743 26.8676C24.1719 26.7498 23.9306 26.7167 23.7039 26.7758C21.384 27.3597 19.21 27.6234 15.9891 27.6234C12.1538 27.6234 8.69038 27.1467 6.27691 26.352C5.07 25.9547 4.13273 25.4664 3.54934 24.985C2.96596 24.5036 2.76405 24.1004 2.76405 23.6863C2.76519 23.6591 2.76519 23.6318 2.76405 23.6044V22.6747C3.55798 23.2421 4.55843 23.6846 5.7259 24.0691C8.41176 24.9533 12.0096 25.4361 15.9894 25.4361C19.9693 25.4361 23.567 24.9533 26.253 24.0691C27.4207 23.6847 28.4208 23.2421 29.2148 22.6747V24.1238H29.2146C29.2114 24.3579 29.3028 24.5838 29.4685 24.7504C29.6341 24.9173 29.8604 25.0112 30.0963 25.0112C30.3324 25.0112 30.5585 24.9173 30.7244 24.7504C30.89 24.5838 30.9814 24.3578 30.978 24.1238V19.7491C30.9794 19.722 30.9794 19.6946 30.978 19.6673V15.8123C30.978 15.7835 30.9792 15.7587 30.978 15.7302C30.9748 15.7026 30.9703 15.6752 30.9643 15.6481C30.891 14.7668 30.262 14.0628 29.4765 13.5427C28.6408 12.9894 27.5428 12.5473 26.2115 12.1757C23.5487 11.4326 19.9641 11 15.99 11L15.9889 11.0001ZM15.9889 12.75C19.8299 12.75 23.2917 13.1772 25.7286 13.8574C26.9471 14.1975 27.9094 14.6163 28.4976 15.0058C29.0858 15.3952 29.2138 15.6844 29.2138 15.8124C29.2138 16.2265 29.0119 16.6297 28.4285 17.1112C27.8451 17.5927 26.9076 18.0809 25.701 18.4782C23.2872 19.2728 19.8245 19.7495 15.9887 19.7495C12.1534 19.7495 8.68998 19.2728 6.2765 18.4782C5.06959 18.0808 4.13232 17.5926 3.54894 17.1112C2.96555 16.6297 2.76364 16.2265 2.76364 15.8124C2.76364 15.6844 2.89171 15.3952 3.47986 15.0058C4.06803 14.6163 5.03039 14.1975 6.24891 13.8574C8.68572 13.1774 12.1475 12.75 15.9886 12.75H15.9889ZM2.76352 18.7378C3.55745 19.3051 4.5579 19.7477 5.72538 20.1321C8.41123 21.0163 12.009 21.4991 15.9889 21.4991C19.9688 21.4991 23.5665 21.0163 26.2524 20.1321C27.4201 19.7477 28.4203 19.3052 29.2143 18.7378V19.6948L29.2141 19.6945C29.2136 19.7126 29.2136 19.7309 29.2141 19.7493C29.2141 20.1633 29.0122 20.5665 28.4288 21.048C27.8454 21.5295 26.9079 22.0177 25.7012 22.415C23.2874 23.2097 19.8247 23.6864 15.989 23.6864C12.1537 23.6864 8.69022 23.2097 6.27674 22.415C5.06983 22.0177 4.13256 21.5294 3.54917 21.048C2.96579 20.5666 2.76388 20.1634 2.76388 19.7493H2.76411C2.76524 19.7219 2.76524 19.6945 2.76411 19.6672V18.7375L2.76352 18.7378ZM31.4177 25.8741C29.7214 25.8741 28.0213 26.5104 26.7338 27.7879C24.1589 30.3431 24.1589 34.5289 26.7338 37.0836C29.3087 39.6388 33.5268 39.6388 36.1012 37.0836C38.6757 34.5284 38.6761 30.3427 36.1012 27.7879C34.8137 26.5103 33.1139 25.8741 31.4173 25.8741H31.4177ZM31.4177 27.624C32.6545 27.624 33.8974 28.0887 34.8481 29.0319C36.7491 30.9184 36.7491 33.9532 34.8481 35.84C32.9471 37.7265 29.8886 37.7265 27.9875 35.84C26.0865 33.9533 26.0865 30.9185 27.9875 29.0319C28.938 28.0887 30.1809 27.624 31.4179 27.624H31.4177ZM31.3214 28.4851L31.3211 28.4849C31.1021 28.5089 30.9 28.6133 30.7546 28.7777C30.6092 28.9421 30.5313 29.1547 30.5361 29.3734V31.5606H28.7727V31.5608C28.7451 31.5595 28.7175 31.5595 28.6899 31.5608C28.4554 31.5708 28.2348 31.673 28.0764 31.8449C27.9181 32.0167 27.8353 32.2442 27.8463 32.4769C27.8572 32.7094 27.9611 32.9281 28.135 33.0846C28.3089 33.241 28.5381 33.3222 28.7727 33.3105H31.2523C31.3947 33.3365 31.5415 33.3272 31.6793 33.2833C31.8261 33.2406 31.959 33.1603 32.0652 33.0511C32.0795 33.0334 32.0934 33.0151 32.1064 32.9964C32.1112 32.9918 32.1157 32.9873 32.1203 32.9828C32.1347 32.9652 32.1486 32.9468 32.1615 32.9281C32.2762 32.7546 32.3252 32.5461 32.2994 32.3403V29.3739C32.3049 29.1217 32.2005 28.8797 32.0132 28.7094C31.8259 28.5394 31.5736 28.4575 31.3211 28.4851L31.3214 28.4851Z" fill="#C7D7FF"/>
</svg>
