<svg width="40" height="40" viewBox="0 0 40 40" fill="none" xmlns="http://www.w3.org/2000/svg">
<path d="M20 13.3335C20.9205 13.3335 21.6667 14.0797 21.6667 15.0002V21.6668C21.6667 22.5873 20.9205 23.3335 20 23.3335C19.0796 23.3335 18.3334 22.5873 18.3334 21.6668V15.0002C18.3334 14.0797 19.0796 13.3335 20 13.3335Z" fill="#FF1351"/>
<path d="M20 25.0002C19.0796 25.0002 18.3334 25.7464 18.3334 26.6668C18.3334 27.5873 19.0796 28.3335 20 28.3335H20.0167C20.9372 28.3335 21.6834 27.5873 21.6834 26.6668C21.6834 25.7464 20.9372 25.0002 20.0167 25.0002H20Z" fill="#FF1351"/>
<path fill-rule="evenodd" clip-rule="evenodd" d="M17.6214 4.00603C18.3378 3.56796 19.1589 3.3335 20.0001 3.3335C20.8413 3.3335 21.6623 3.56796 22.3787 4.00603C23.0935 4.44311 23.6753 5.06488 24.073 5.80014L24.0745 5.80291L36.0587 27.8114L36.0606 27.8149C36.4593 28.541 36.6665 29.3585 36.6667 30.1864C36.6669 31.0157 36.4595 31.8346 36.0599 32.5618C35.66 33.2894 35.0793 33.9038 34.368 34.3355C33.656 34.7676 32.8416 34.9991 32.0073 35H8.03175C7.19639 35.0063 6.37892 34.7812 5.66258 34.354C4.94449 33.9256 4.35697 33.3118 3.95164 32.5826C3.54656 31.8538 3.33514 31.0315 3.33339 30.1983C3.33163 29.3664 3.53887 28.5446 3.93947 27.815L3.9415 27.8114L15.9257 5.80291L15.9272 5.80015C16.3249 5.06488 16.9066 4.44311 17.6214 4.00603ZM20.0001 6.66683C19.7808 6.66683 19.5603 6.72758 19.3604 6.84982C19.1597 6.97251 18.9838 7.15508 18.8586 7.38684L18.8559 7.39191L6.86195 29.4183C6.73534 29.6484 6.66613 29.9153 6.66671 30.1912C6.66729 30.4672 6.73762 30.7337 6.86511 30.9631C6.99236 31.192 7.16934 31.3714 7.37016 31.4912C7.57026 31.6106 7.7903 31.6688 8.00889 31.6668L8.02462 31.6666L32.0037 31.6667C32.2213 31.6665 32.4399 31.6065 32.6385 31.4859C32.8377 31.365 33.0129 31.1851 33.1385 30.9565C33.2644 30.7274 33.3334 30.4618 33.3334 30.1873C33.3333 29.9127 33.2642 29.6472 33.1382 29.4182L33.1347 29.4118L21.1443 7.39191L21.1415 7.38684C21.0164 7.15507 20.8404 6.97251 20.6398 6.84982C20.4399 6.72758 20.2194 6.66683 20.0001 6.66683Z" fill="#FF1351"/>
</svg>
