<svg width="15" height="15" viewBox="0 0 15 15" fill="none" xmlns="http://www.w3.org/2000/svg">
<path fill-rule="evenodd" clip-rule="evenodd" d="M6.87604 8L10.8172 4.05888C11.0594 3.81664 11.0602 3.42367 10.8182 3.18175C10.5746 2.93815 10.1836 2.94032 9.94112 3.18283L6 7.12396L2.05888 3.18283C1.81664 2.94059 1.42367 2.93984 1.18175 3.18175C0.938154 3.42535 0.940323 3.81637 1.18283 4.05888L5.12396 8L1.18283 11.9411C0.94059 12.1834 0.93984 12.5763 1.18175 12.8182C1.42535 13.0618 1.81637 13.0597 2.05888 12.8172L6 8.87605L9.94112 12.8172C10.1834 13.0594 10.5763 13.0602 10.8182 12.8182C11.0618 12.5746 11.0597 12.1836 10.8172 11.9411L6.87604 8Z" fill="white" fill-opacity="0.75"/>
</svg>
