<svg width="24" height="24" viewBox="0 0 24 24" fill="none" xmlns="http://www.w3.org/2000/svg">
<path d="M0 4C0 1.79086 1.79086 0 4 0H20C22.2091 0 24 1.79086 24 4V20C24 22.2091 22.2091 24 20 24H4C1.79086 24 0 22.2091 0 20V4Z" fill="#1E293B"/>
<path d="M7.52376 5.875H13.1787H18.8337L18.8698 5.89383C18.9132 5.91536 18.9638 5.97455 18.9855 6.02567C18.9976 6.05527 19 6.07679 19 6.12791C19 6.18441 18.9928 6.20055 18.9807 6.23822C18.9638 6.2732 18.759 6.50727 17.8213 7.5512C16.9607 8.51172 16.6739 8.82921 16.6426 8.84804C16.6209 8.86149 16.5799 8.88302 16.551 8.89378L16.5003 8.9153L10.8382 8.91799C5.31336 8.92068 5.17596 8.92068 5.14222 8.90454C5.08919 8.88033 5.05062 8.83997 5.0241 8.78078C5.00241 8.73504 5 8.72158 5 8.66508C5 8.61396 5.00723 8.59513 5.01928 8.56015C5.03616 8.52517 5.21694 8.31531 6.18113 7.24179C7.42734 5.85347 7.3478 5.93419 7.46832 5.89383L7.52376 5.875ZM10.802 10.4462C15.9146 10.4435 16.4401 10.4435 16.4907 10.457C16.522 10.465 16.5727 10.4839 16.6064 10.5L16.6667 10.5323L17.814 11.8103C18.7806 12.8892 18.9638 13.0964 18.9807 13.1314C18.9952 13.1663 19 13.1852 19 13.2363C19 13.2928 18.9928 13.3063 18.9759 13.352C18.9494 13.4112 18.9108 13.4515 18.8554 13.4758C18.8216 13.4919 18.73 13.4919 13.1739 13.4892C7.7166 13.4892 7.53099 13.4892 7.48037 13.4731C7.42011 13.4569 7.38395 13.4354 7.32851 13.3897C7.30441 13.3708 6.78134 12.7897 6.16185 12.0982C5.24828 11.0758 5.03375 10.8337 5.02169 10.8014C4.99759 10.7476 4.99759 10.6453 5.01446 10.5942C5.03616 10.5431 5.08196 10.4893 5.12776 10.4651L5.16632 10.4435L10.802 10.4462ZM13.1594 15.082C18.3154 15.0793 18.8192 15.082 18.8505 15.0928C18.9036 15.1116 18.9494 15.1573 18.9759 15.2192C18.9976 15.265 19 15.2784 19 15.3349C19 15.3887 18.9928 15.4049 18.9807 15.4398C18.9638 15.4748 18.7806 15.6847 17.814 16.7609L16.6667 18.0389L16.6064 18.0712C16.5727 18.09 16.522 18.1089 16.4931 18.1142C16.4449 18.125 15.8399 18.125 10.814 18.125C6.29924 18.125 5.1832 18.1223 5.1615 18.1142C5.1157 18.0981 5.0916 18.082 5.06026 18.0443C5.01446 17.9878 5 17.9474 5 17.8694C5 17.8156 5.00723 17.7968 5.01687 17.7645C5.03134 17.7322 5.24346 17.49 6.17631 16.4515C7.03926 15.4883 7.32851 15.1708 7.35744 15.152C7.37913 15.1385 7.42011 15.117 7.44904 15.1062L7.49966 15.0847L13.1594 15.082Z" fill="url(#paint0_linear_2393_1552)"/>
<defs>
<linearGradient id="paint0_linear_2393_1552" x1="18.5555" y1="6" x2="4.55554" y2="18" gradientUnits="userSpaceOnUse">
<stop stop-color="#11EDAA"/>
<stop offset="1" stop-color="#D328FB"/>
</linearGradient>
</defs>
</svg>
