<svg xmlns="http://www.w3.org/2000/svg" width="82" height="82" viewBox="0 0 82 82" fill="none">
  <!-- Bottom coin cylinder -->
  <path d="M18 54C18 54 18 62 41 62C64 62 64 54 64 54V48C64 48 64 56 41 56C18 56 18 48 18 48V54Z" fill="#67E8F9" fill-opacity="0.35"/>
  <ellipse cx="41" cy="48" rx="23" ry="7" fill="#67E8F9" fill-opacity="0.45"/>

  <!-- Middle coin cylinder -->
  <path d="M18 44C18 44 18 52 41 52C64 52 64 44 64 44V38C64 38 64 46 41 46C18 46 18 38 18 38V44Z" fill="#67E8F9" fill-opacity="0.28"/>
  <ellipse cx="41" cy="38" rx="23" ry="7" fill="#67E8F9" fill-opacity="0.38"/>

  <!-- Top coin cylinder -->
  <path d="M18 34C18 34 18 42 41 42C64 42 64 34 64 34V28C64 28 64 36 41 36C18 36 18 28 18 28V34Z" fill="#67E8F9" fill-opacity="0.22"/>
  <ellipse cx="41" cy="28" rx="23" ry="7" fill="#67E8F9" fill-opacity="0.55"/>
</svg>
