<svg width="20" height="21" viewBox="0 0 20 20.0004" fill="none" xmlns="http://www.w3.org/2000/svg"><path fill-rule="evenodd" clip-rule="evenodd" d="M7.46944 3.01257C6.80934 2.27912 6.12408 1.98972 5.51742 2.00029L5.5 2.00044C5.10218 2.00044 4.72064 2.15848 4.43934 2.43978C4.15804 2.72109 4 3.10262 4 3.50044C4 3.89827 4.15804 4.2798 4.43934 4.5611C4.72064 4.84241 5.10218 5.00044 5.5 5.00044H8.64192C8.32509 4.189 7.92148 3.51483 7.46944 3.01257ZM9 7.00044V9.00044L3 9.00044L2 9.00044V7.00044H9ZM2.33772 5.00044C2.11743 4.53602 2 4.02428 2 3.50044C2 2.57219 2.36875 1.68195 3.02513 1.02557C3.67943 0.371268 4.56612 0.00277869 5.4912 0.000455358C6.81053 -0.0196377 8.01276 0.626567 8.95603 1.67464C9.34969 2.11204 9.69866 2.61826 10 3.17701C10.3013 2.61826 10.6503 2.11204 11.044 1.67464C11.9872 0.626567 13.1895 -0.0196375 14.5088 0.000455358C15.4339 0.00277857 16.3206 0.371268 16.9749 1.02557C17.6312 1.68195 18 2.57219 18 3.50044C18 4.02428 17.8826 4.53602 17.6623 5.00044H18C19.1046 5.00044 20 5.89587 20 7.00044V9.00044C20 10.105 19.1046 11.0004 18 11.0004V17.0004C18 17.7961 17.6839 18.5592 17.1213 19.1218C16.5587 19.6844 15.7957 20.0004 15 20.0004H5C4.20435 20.0004 3.44129 19.6844 2.87868 19.1218C2.31607 18.5592 2 17.7961 2 17.0004V11.0004C0.89543 11.0004 0 10.105 0 9.00044V7.00044C0 5.89587 0.89543 5.00044 2 5.00044H2.33772ZM4 11.0004V17.0004C4 17.2657 4.10536 17.52 4.29289 17.7076C4.48043 17.8951 4.73478 18.0004 5 18.0004H9V11.0004H4ZM11 11.0004V18.0004H15C15.2652 18.0004 15.5196 17.8951 15.7071 17.7076C15.8946 17.52 16 17.2657 16 17.0004V11.0004H11ZM17 9.00044L18 9.00044V7.00044H11V9.00044L17 9.00044ZM14.5 5.00044C14.8978 5.00044 15.2794 4.84241 15.5607 4.5611C15.842 4.2798 16 3.89827 16 3.50044C16 3.10262 15.842 2.72109 15.5607 2.43978C15.2794 2.15848 14.8978 2.00044 14.5 2.00044L14.4826 2.00029C13.8759 1.98972 13.1907 2.27912 12.5306 3.01257C12.0785 3.51483 11.6749 4.189 11.3581 5.00044H14.5Z" fill="#F5F8FF"/></svg>
