<svg width="23" height="20" viewBox="0 0 23 20" fill="none" xmlns="http://www.w3.org/2000/svg">
<path fill-rule="evenodd" clip-rule="evenodd" d="M4.24333 3.52946C4.4499 2.85812 5.07017 2.4 5.77258 2.4H8C8.44183 2.4 8.8 2.04183 8.8 1.6C8.8 1.15817 8.44183 0.8 8 0.8H5.77258C4.36776 0.8 3.12722 1.71623 2.71409 3.05893L0.141507 11.4198C0.0476964 11.7247 0 12.0419 0 12.3609V16.8C0 18.5673 1.43269 20 3.2 20H19.2C20.9673 20 22.4 18.5673 22.4 16.8V12.3609C22.4 12.0419 22.3523 11.7247 22.2585 11.4198L19.6859 3.05893C19.2728 1.71623 18.0322 0.8 16.6274 0.8H14.4C13.9582 0.8 13.6 1.15817 13.6 1.6C13.6 2.04183 13.9582 2.4 14.4 2.4H16.6274C17.3298 2.4 17.9501 2.85812 18.1567 3.52946L20.5168 11.2H17.4833C16.2712 11.2 15.1632 11.8848 14.6211 12.9689L14.3478 13.5155C14.0768 14.0576 13.5228 14.4 12.9167 14.4H9.48328C8.87725 14.4 8.32323 14.0576 8.0522 13.5155L7.77889 12.9689C7.23683 11.8848 6.12879 11.2 4.91672 11.2H1.88317L4.24333 3.52946Z" fill="#E16BFF"/>
<path fill-rule="evenodd" clip-rule="evenodd" d="M11.2 0C11.6418 0 12 0.358172 12 0.8V7.66863L13.8343 5.83431C14.1467 5.5219 14.6533 5.5219 14.9657 5.83431C15.2781 6.14673 15.2781 6.65327 14.9657 6.96569L11.7657 10.1657C11.4533 10.4781 10.9467 10.4781 10.6343 10.1657L7.43431 6.96569C7.1219 6.65327 7.1219 6.14673 7.43431 5.83431C7.74673 5.5219 8.25327 5.5219 8.56569 5.83431L10.4 7.66863V0.8C10.4 0.358172 10.7582 0 11.2 0Z" fill="#E16BFF"/>
</svg>
