<svg width="21" height="20" viewBox="0 0 21 20" fill="none" xmlns="http://www.w3.org/2000/svg">
<path fill-rule="evenodd" clip-rule="evenodd" d="M8.95078 3.125C5.81098 3.125 3.26568 5.6434 3.26568 8.75C3.26568 11.8566 5.81098 14.375 8.95078 14.375C10.5208 14.375 11.9413 13.7461 12.9708 12.7275C14.0002 11.7089 14.6359 10.3035 14.6359 8.75C14.6359 5.6434 12.0906 3.125 8.95078 3.125ZM2.00232 8.75C2.00232 4.95304 5.11325 1.875 8.95078 1.875C12.7883 1.875 15.8992 4.95304 15.8992 8.75C15.8992 10.4232 15.2945 11.9575 14.2905 13.1494L18.2409 17.0581C18.4876 17.3021 18.4876 17.6979 18.2409 17.9419C17.9942 18.186 17.5943 18.186 17.3476 17.9419L13.3972 14.0333C12.1926 15.0266 10.6418 15.625 8.95078 15.625C5.11325 15.625 2.00232 12.547 2.00232 8.75Z" fill="white"/>
</svg>
