<svg xmlns="http://www.w3.org/2000/svg" width="23" height="23" viewBox="0 0 23 23" fill="none">
  <path fill-rule="evenodd" clip-rule="evenodd" d="M8.64412 3.74149C7.91801 2.93471 7.16422 2.61638 6.4969 2.62801L6.47773 2.62817C6.04013 2.62817 5.62044 2.80201 5.31101 3.11144C5.00157 3.42087 4.82773 3.84054 4.82773 4.27814C4.82773 4.71574 5.00157 5.13541 5.31101 5.44484C5.62044 5.75427 6.04013 5.9281 6.47773 5.9281H9.93384C9.58533 5.03554 9.14136 4.29396 8.64412 3.74149ZM10.3277 8.12805V10.328L3.72773 10.328L2.62773 10.328V8.12805H10.3277ZM2.99923 5.9281C2.75691 5.41724 2.62773 4.85435 2.62773 4.27814C2.62773 3.25708 3.03336 2.27784 3.75537 1.55584C4.47511 0.83612 5.45046 0.430791 6.46805 0.428235C7.91932 0.406133 9.24177 1.11694 10.2794 2.2698C10.7124 2.75092 11.0963 3.30775 11.4277 3.92237C11.7592 3.30775 12.1431 2.75092 12.5761 2.2698C13.6137 1.11694 14.9362 0.406134 16.3874 0.428235C17.405 0.430791 18.3804 0.83612 19.1001 1.55584C19.8221 2.27784 20.2277 3.25708 20.2277 4.27814C20.2277 4.85435 20.0986 5.41724 19.8562 5.9281H20.2277C21.4428 5.9281 22.4277 6.91305 22.4277 8.12805V10.328C22.4277 11.543 21.4428 12.528 20.2277 12.528V19.1278C20.2277 20.003 19.8801 20.8424 19.2612 21.4612C18.6423 22.0801 17.8029 22.4277 16.9277 22.4277H5.92773C5.05252 22.4277 4.21315 22.0801 3.59428 21.4612C2.97541 20.8424 2.62773 20.003 2.62773 19.1278V12.528C1.41271 12.528 0.427734 11.543 0.427734 10.328V8.12805C0.427734 6.91305 1.41271 5.9281 2.62773 5.9281H2.99923ZM4.82773 12.528V19.1278C4.82773 19.4195 4.94363 19.6993 5.14992 19.9056C5.35621 20.1119 5.636 20.2278 5.92773 20.2278H10.3277V12.528H4.82773ZM12.5277 12.528V20.2278H16.9277C17.2195 20.2278 17.4993 20.1119 17.7056 19.9056C17.9118 19.6993 18.0277 19.4195 18.0277 19.1278V12.528H12.5277ZM19.1277 10.328L20.2277 10.328V8.12805H12.5277V10.328L19.1277 10.328ZM16.3777 5.9281C16.8153 5.9281 17.235 5.75427 17.5445 5.44484C17.8539 5.13541 18.0277 4.71574 18.0277 4.27814C18.0277 3.84054 17.8539 3.42087 17.5445 3.11144C17.235 2.80201 16.8153 2.62817 16.3777 2.62817L16.3586 2.62801C15.6912 2.61638 14.9375 2.93471 14.2113 3.74149C13.7141 4.29396 13.2701 5.03554 12.9216 5.9281H16.3777Z" fill="#F7F7F7"/>
</svg>