<svg width="40" height="40" viewBox="0 0 40 40" fill="none" xmlns="http://www.w3.org/2000/svg">
<path d="M27.8452 17.8453C28.4961 17.1945 28.4961 16.1392 27.8452 15.4883C27.1943 14.8374 26.1391 14.8374 25.4882 15.4883L18.3334 22.6431L14.5119 18.8217C13.861 18.1708 12.8057 18.1708 12.1549 18.8217C11.504 19.4725 11.504 20.5278 12.1549 21.1787L17.1549 26.1787C17.8057 26.8295 18.861 26.8295 19.5119 26.1787L27.8452 17.8453Z" fill="#08C29D"/>
<path fill-rule="evenodd" clip-rule="evenodd" d="M3.33337 20.0002C3.33337 10.7954 10.7953 3.3335 20 3.3335C29.2048 3.3335 36.6667 10.7954 36.6667 20.0002C36.6667 29.2049 29.2048 36.6668 20 36.6668C10.7953 36.6668 3.33337 29.2049 3.33337 20.0002ZM20 6.66683C12.6362 6.66683 6.66671 12.6364 6.66671 20.0002C6.66671 27.364 12.6362 33.3335 20 33.3335C27.3638 33.3335 33.3334 27.364 33.3334 20.0002C33.3334 12.6364 27.3638 6.66683 20 6.66683Z" fill="#08C29D"/>
</svg>
