<svg width="23" height="23" viewBox="0 0 23 23" fill="none" xmlns="http://www.w3.org/2000/svg">
<path fill-rule="evenodd" clip-rule="evenodd" d="M9.01805 4.77341C8.38938 4.07489 7.73675 3.79927 7.15898 3.80934L7.14239 3.80948C6.76351 3.80948 6.40015 3.95999 6.13224 4.2279C5.86433 4.49581 5.71382 4.85917 5.71382 5.23805C5.71382 5.61693 5.86433 5.9803 6.13224 6.24821C6.40015 6.51611 6.76351 6.66663 7.14239 6.66663H10.1347C9.83295 5.89382 9.44856 5.25175 9.01805 4.77341ZM10.4757 8.57139V10.4761L4.76144 10.4761L3.80906 10.4761V8.57139H10.4757ZM4.1307 6.66663C3.9209 6.22431 3.80906 5.73695 3.80906 5.23805C3.80906 4.354 4.16025 3.50615 4.78537 2.88103C5.40851 2.25789 6.25298 1.90694 7.13401 1.90473C8.39052 1.88559 9.5355 2.50103 10.4338 3.49919C10.8088 3.91576 11.1411 4.39788 11.4281 4.93002C11.7151 4.39788 12.0475 3.91576 12.4224 3.49919C13.3207 2.50103 14.4657 1.88559 15.7222 1.90473C16.6032 1.90694 17.4477 2.25789 18.0708 2.88103C18.696 3.50615 19.0472 4.354 19.0472 5.23805C19.0472 5.73695 18.9353 6.22431 18.7255 6.66663H19.0472C20.0991 6.66663 20.9519 7.51942 20.9519 8.57139V10.4761C20.9519 11.5281 20.0991 12.3809 19.0472 12.3809V18.0952C19.0472 18.853 18.7461 19.5797 18.2103 20.1155C17.6745 20.6513 16.9478 20.9523 16.19 20.9523H6.6662C5.90844 20.9523 5.18171 20.6513 4.6459 20.1155C4.11008 19.5797 3.80906 18.853 3.80906 18.0952V12.3809C2.75709 12.3809 1.9043 11.5281 1.9043 10.4761V8.57139C1.9043 7.51942 2.75709 6.66663 3.80906 6.66663H4.1307ZM5.71382 12.3809V18.0952C5.71382 18.3478 5.81416 18.59 5.99277 18.7686C6.17137 18.9472 6.41361 19.0476 6.6662 19.0476H10.4757V12.3809H5.71382ZM12.3805 12.3809V19.0476H16.19C16.4426 19.0476 16.6848 18.9472 16.8634 18.7686C17.0421 18.59 17.1424 18.3478 17.1424 18.0952V12.3809H12.3805ZM18.0948 10.4761L19.0472 10.4761V8.57139H12.3805V10.4761L18.0948 10.4761ZM15.7138 6.66663C16.0927 6.66663 16.4561 6.51611 16.724 6.24821C16.9919 5.9803 17.1424 5.61693 17.1424 5.23805C17.1424 4.85917 16.9919 4.49581 16.724 4.2279C16.4561 3.95999 16.0927 3.80948 15.7138 3.80948L15.6972 3.80934C15.1195 3.79927 14.4668 4.07489 13.8382 4.77341C13.4077 5.25175 13.0233 5.89382 12.7215 6.66663H15.7138Z" fill="white"/>
</svg>
