<svg width="10" height="10" viewBox="0 0 10 10" fill="none" xmlns="http://www.w3.org/2000/svg">
<path fill-rule="evenodd" clip-rule="evenodd" d="M5.87604 5L9.81717 1.05888C10.0594 0.816635 10.0602 0.423667 9.81825 0.181753C9.57465 -0.0618463 9.18363 -0.0596768 8.94112 0.182832L5 4.12396L1.05888 0.182832C0.816635 -0.0594095 0.423667 -0.0601597 0.181753 0.181753C-0.0618462 0.425353 -0.0596768 0.816368 0.182832 1.05888L4.12396 5L0.182832 8.94112C-0.0594095 9.18337 -0.0601596 9.57633 0.181753 9.81825C0.425353 10.0618 0.816368 10.0597 1.05888 9.81717L5 5.87605L8.94112 9.81717C9.18336 10.0594 9.57633 10.0602 9.81825 9.81825C10.0618 9.57465 10.0597 9.18363 9.81717 8.94112L5.87604 5Z" fill="#0A2EBF"/>
</svg>
