<svg width="16" height="16" viewBox="0 0 16 16" fill="none" xmlns="http://www.w3.org/2000/svg">
<path fill-rule="evenodd" clip-rule="evenodd" d="M6.4 0C2.86538 0 0 2.86538 0 6.4C0 9.93463 2.86538 12.8 6.4 12.8C7.87897 12.8 9.24077 12.2983 10.3245 11.4559L14.6343 15.7657C14.9467 16.0781 15.4533 16.0781 15.7657 15.7657C16.0781 15.4533 16.0781 14.9467 15.7657 14.6343L11.4559 10.3245C12.2983 9.24077 12.8 7.87897 12.8 6.4C12.8 2.86538 9.93463 0 6.4 0ZM1.6 6.4C1.6 3.74903 3.74903 1.6 6.4 1.6C9.05097 1.6 11.2 3.74903 11.2 6.4C11.2 9.05097 9.05097 11.2 6.4 11.2C3.74903 11.2 1.6 9.05097 1.6 6.4Z" fill="#AEB0BB"/>
</svg>
