<svg width="41" height="36" viewBox="0 0 41 36" fill="none" xmlns="http://www.w3.org/2000/svg">
<path d="M37.72 6.54545H4.92C4.48504 6.54545 4.0679 6.37305 3.76035 6.06617C3.45279 5.7593 3.28 5.34308 3.28 4.90909C3.28 4.4751 3.45279 4.05889 3.76035 3.75201C4.0679 3.44513 4.48504 3.27273 4.92 3.27273H32.8C33.235 3.27273 33.6521 3.10032 33.9597 2.79345C34.2672 2.48657 34.44 2.07035 34.44 1.63636C34.44 1.20237 34.2672 0.786158 33.9597 0.47928C33.6521 0.172402 33.235 0 32.8 0H4.92C3.61513 0 2.36371 0.517206 1.44103 1.43784C0.518356 2.35847 0 3.60712 0 4.90909V31.0909C0 32.3929 0.518356 33.6415 1.44103 34.5622C2.36371 35.4828 3.61513 36 4.92 36H37.72C38.5899 36 39.4242 35.6552 40.0393 35.0414C40.6544 34.4277 41 33.5953 41 32.7273V9.81818C41 8.9502 40.6544 8.11777 40.0393 7.50401C39.4242 6.89026 38.5899 6.54545 37.72 6.54545ZM30.34 22.9091C29.8535 22.9091 29.3778 22.7651 28.9733 22.4954C28.5688 22.2257 28.2534 21.8424 28.0673 21.3939C27.8811 20.9453 27.8323 20.4518 27.9273 19.9757C28.0222 19.4996 28.2565 19.0622 28.6005 18.7189C28.9446 18.3756 29.3829 18.1419 29.8601 18.0472C30.3373 17.9525 30.8319 18.0011 31.2814 18.1868C31.7309 18.3726 32.1151 18.6872 32.3854 19.0909C32.6557 19.4945 32.8 19.9691 32.8 20.4545C32.8 21.1055 32.5408 21.7299 32.0795 22.1902C31.6181 22.6505 30.9924 22.9091 30.34 22.9091Z" fill="#FF00B8"/>
</svg>
