<svg width="41" height="42" viewBox="0 0 41 42" fill="none" xmlns="http://www.w3.org/2000/svg">
<path d="M8.07577 41.9997C6.32532 41.9997 4.71098 41.0433 3.79659 39.5404C2.76568 37.8422 2.76568 35.8123 3.6215 34.0363L14.9609 15.4158C16.2445 13.5224 17.9173 12 20.3486 12C22.78 12 24.4527 13.5224 25.7364 15.4158L37.0174 33.9388C37.951 35.6759 37.9122 37.8621 36.8813 39.5407C35.9671 41.0436 34.3722 42 32.6021 42H8.0755L8.07577 41.9997ZM20.3489 32.2797C21.3798 32.2797 22.1967 33.119 22.1967 34.1534C22.1967 35.1879 21.3798 36.0077 20.3489 36.0077C19.318 36.0077 18.4817 35.1879 18.4817 34.1534C18.4817 33.1189 19.3181 32.2797 20.3489 32.2797ZM20.3489 30.4254C19.6682 30.4254 19.1818 29.8593 19.1041 29.1762L18.4817 23.5743C18.3845 22.618 19.3959 21.7201 20.3489 21.7201C21.3019 21.7201 22.3134 22.618 22.1967 23.5743L21.5743 29.1762C21.516 29.8398 21.0491 30.4254 20.3489 30.4254ZM8.07577 39.521H32.6024C33.5166 39.521 34.2946 39.0135 34.7808 38.2329C35.3449 37.296 35.3254 36.1639 34.878 35.188L23.6747 16.8016C22.8773 15.6304 21.8853 14.4789 20.3487 14.4789C18.8121 14.4789 17.8008 15.6304 17.0032 16.8016L5.81935 35.188C5.35256 36.1835 5.33314 37.2961 5.91655 38.2329C6.38334 39.0136 7.16138 39.521 8.07556 39.521H8.07577Z" fill="#88AAFA"/>
</svg>
