<svg xmlns="http://www.w3.org/2000/svg" width="34" height="34" viewBox="0 0 34 34" fill="none">
  <path d="M24.5118 14.5118C25.1627 13.861 25.1627 12.8057 24.5118 12.1548C23.861 11.5039 22.8057 11.5039 22.1548 12.1548L15 19.3096L11.1785 15.4882C10.5276 14.8373 9.47236 14.8373 8.82149 15.4882C8.17061 16.139 8.17061 17.1943 8.82149 17.8452L13.8215 22.8452C14.4724 23.4961 15.5276 23.4961 16.1785 22.8452L24.5118 14.5118Z" fill="#66F2D6"/>
  <path fill-rule="evenodd" clip-rule="evenodd" d="M0 16.6667C0 7.46192 7.46192 0 16.6667 0C25.8714 0 33.3333 7.46192 33.3333 16.6667C33.3333 25.8714 25.8714 33.3333 16.6667 33.3333C7.46192 33.3333 0 25.8714 0 16.6667ZM16.6667 3.33333C9.30287 3.33333 3.33333 9.30287 3.33333 16.6667C3.33333 24.0305 9.30287 30 16.6667 30C24.0305 30 30 24.0305 30 16.6667C30 9.30287 24.0305 3.33333 16.6667 3.33333Z" fill="#66F2D6"/>
</svg>