<svg width="20" height="20" viewBox="0 0 20 20" fill="none" xmlns="http://www.w3.org/2000/svg">
<path d="M17.5907 9.63819C17.5907 9.88683 17.4919 10.1253 17.3161 10.3011C17.1403 10.4769 16.9018 10.5757 16.6532 10.5757H5.16883L9.19383 14.5999C9.36995 14.776 9.46889 15.0149 9.46889 15.264C9.46889 15.513 9.36995 15.7519 9.19383 15.928C9.01771 16.1042 8.77884 16.2031 8.52977 16.2031C8.2807 16.2031 8.04182 16.1042 7.8657 15.928L2.24071 10.303C2.15331 10.2159 2.08396 10.1124 2.03664 9.99849C1.98932 9.88454 1.96497 9.76236 1.96497 9.63897C1.96497 9.51559 1.98932 9.39341 2.03664 9.27946C2.08396 9.1655 2.15331 9.06201 2.24071 8.97491L7.8657 3.34991C7.95291 3.26271 8.05644 3.19353 8.17038 3.14633C8.28432 3.09914 8.40644 3.07485 8.52977 3.07485C8.65309 3.07485 8.77522 3.09914 8.88916 3.14633C9.0031 3.19353 9.10662 3.26271 9.19383 3.34991C9.28104 3.43712 9.35021 3.54065 9.39741 3.65459C9.4446 3.76853 9.46889 3.89065 9.46889 4.01397C9.46889 4.1373 9.4446 4.25942 9.39741 4.37336C9.35021 4.4873 9.28104 4.59083 9.19383 4.67804L5.16883 8.70069H16.6532C16.9018 8.70069 17.1403 8.79946 17.3161 8.97528C17.4919 9.1511 17.5907 9.38955 17.5907 9.63819Z" fill="#8C8C8C"/>
</svg>
