<svg width="280" height="280" viewBox="0 0 280 280" fill="none" xmlns="http://www.w3.org/2000/svg">
<path d="M254.997 181.937L254.918 170.046L240.439 167.124L164.378 123.249C153.028 116.701 133.178 117.485 120.038 125.002L49.8629 165.144C49.2829 165.471 48.7386 165.813 48.2087 166.155L39 168.977V179.785C39.0859 183.847 41.5994 187.708 46.6405 190.622L129.612 238.473C140.962 245.021 160.812 244.237 173.952 236.728L244.127 196.586C251.431 192.404 255.112 187.031 254.997 181.951V181.937Z" fill="url(#paint0_linear_19339_6010)"/>
<path opacity="0.8" d="M129.626 227.651L46.6538 179.792C35.3039 173.252 36.7504 161.852 49.8833 154.335L120.059 114.193C133.199 106.677 153.048 105.893 164.398 112.441L247.37 160.292C258.698 166.839 257.252 178.239 244.09 185.756L173.915 225.898C160.825 233.415 140.975 234.198 129.626 227.651Z" fill="#0EE7EA"/>
<path d="M77.0039 150.751L154.209 151.391V162.079C154.209 167.781 150.431 173.472 142.897 177.819C127.819 186.491 103.383 186.491 88.3045 177.819C80.7708 173.483 77.0039 167.781 77.0039 162.079V150.751Z" fill="url(#paint1_linear_19339_6010)"/>
<path d="M115.606 174.036C136.926 174.036 154.209 164.072 154.209 151.781C154.209 139.49 136.926 129.526 115.606 129.526C94.2868 129.526 77.0039 139.49 77.0039 151.781C77.0039 164.072 94.2868 174.036 115.606 174.036Z" fill="#16E3BA"/>
<path fill-rule="evenodd" clip-rule="evenodd" d="M92.0866 137.566C86.0826 141.027 82.534 145.712 82.534 150.751C82.534 155.791 86.0826 160.475 92.0866 163.936C98.0735 167.388 106.387 169.543 115.605 169.543C124.824 169.543 133.137 167.388 139.124 163.936C145.128 160.475 148.677 155.791 148.677 150.751C148.677 145.712 145.128 141.027 139.124 137.566C133.137 134.115 124.824 131.96 115.605 131.96C106.387 131.96 98.0735 134.115 92.0866 137.566ZM91.4407 136.449C97.6571 132.866 106.202 130.67 115.605 130.67C125.009 130.67 133.554 132.866 139.77 136.449C145.969 140.023 149.969 145.056 149.969 150.751C149.969 156.447 145.969 161.48 139.77 165.054C133.554 168.637 125.009 170.833 115.605 170.833C106.202 170.833 97.6571 168.637 91.4407 165.054C85.2415 161.48 81.2422 156.447 81.2422 150.751C81.2422 145.056 85.2415 140.023 91.4407 136.449Z" fill="#0CDDB3"/>
<path d="M77.0039 138.101L154.209 138.74V149.439C154.209 155.131 150.431 160.832 142.897 165.169C127.819 173.841 103.383 173.841 88.3045 165.169C80.7708 160.832 77.0039 155.131 77.0039 149.439V138.101Z" fill="url(#paint2_linear_19339_6010)"/>
<path d="M115.606 161.397C136.926 161.397 154.209 151.433 154.209 139.142C154.209 126.851 136.926 116.887 115.606 116.887C94.2868 116.887 77.0039 126.851 77.0039 139.142C77.0039 151.433 94.2868 161.397 115.606 161.397Z" fill="#16E3BA"/>
<path fill-rule="evenodd" clip-rule="evenodd" d="M92.0866 124.916C86.0826 128.377 82.534 133.062 82.534 138.101C82.534 143.14 86.0826 147.825 92.0866 151.286C98.0735 154.737 106.387 156.892 115.605 156.892C124.824 156.892 133.137 154.737 139.124 151.286C145.128 147.825 148.677 143.14 148.677 138.101C148.677 133.062 145.128 128.377 139.124 124.916C133.137 121.465 124.824 119.31 115.605 119.31C106.387 119.31 98.0735 121.465 92.0866 124.916ZM91.4407 123.799C97.6571 120.215 106.202 118.02 115.605 118.02C125.009 118.02 133.554 120.215 139.77 123.799C145.969 127.372 149.969 132.406 149.969 138.101C149.969 143.796 145.969 148.83 139.77 152.403C133.554 155.987 125.009 158.182 115.605 158.182C106.202 158.182 97.6571 155.987 91.4407 152.403C85.2415 148.83 81.2422 143.796 81.2422 138.101C81.2422 132.406 85.2415 127.372 91.4407 123.799Z" fill="#0CDDB3"/>
<path d="M77.0039 125.472L154.209 126.111V136.8C154.209 142.502 150.431 148.193 142.897 152.54C127.819 161.212 103.383 161.212 88.3045 152.54C80.7708 148.204 77.0039 142.502 77.0039 136.8V125.472Z" fill="url(#paint3_linear_19339_6010)"/>
<path d="M115.606 148.746C136.926 148.746 154.209 138.782 154.209 126.491C154.209 114.2 136.926 104.236 115.606 104.236C94.2868 104.236 77.0039 114.2 77.0039 126.491C77.0039 138.782 94.2868 148.746 115.606 148.746Z" fill="#16E3BA"/>
<path fill-rule="evenodd" clip-rule="evenodd" d="M115.606 106.67C107.062 106.67 98.5532 108.55 92.0905 112.275C85.6246 116.001 82.5405 120.797 82.5418 125.461C82.5431 130.125 85.63 134.922 92.0907 138.648C98.5478 142.372 107.057 144.253 115.602 144.253C124.148 144.253 132.66 142.372 139.122 138.648C145.589 134.916 148.675 130.12 148.675 125.457C148.675 120.795 145.589 116.001 139.122 112.275C132.66 108.55 124.151 106.67 115.606 106.67ZM115.606 105.38C124.317 105.38 133.063 107.293 139.768 111.157C146.47 115.019 149.967 120.171 149.967 125.457C149.967 130.743 146.47 135.898 139.768 139.765L139.768 139.765C133.063 143.629 124.314 145.543 115.602 145.543C106.89 145.543 98.1445 143.629 91.4446 139.765C84.7484 135.903 81.2514 130.749 81.25 125.462C81.2486 120.174 84.743 115.019 91.4448 111.157C98.15 107.293 106.896 105.38 115.606 105.38Z" fill="#0CDDB3"/>
<path d="M77.0039 112.811L154.209 113.45V124.149C154.209 129.84 150.431 135.542 142.897 139.889C127.819 148.561 103.383 148.561 88.3045 139.889C80.7708 135.553 77.0039 129.84 77.0039 124.149V112.811Z" fill="url(#paint4_linear_19339_6010)"/>
<path d="M142.897 129.591C127.819 138.263 103.383 138.263 88.3047 129.591C73.2263 120.919 73.2372 106.827 88.3047 98.1545C103.372 89.4824 127.819 89.4824 142.897 98.1545C157.976 106.827 157.976 120.897 142.897 129.591Z" fill="#16E3BA"/>
<path fill-rule="evenodd" clip-rule="evenodd" d="M92.0866 99.6259C86.0826 103.087 82.534 107.772 82.534 112.811C82.534 117.85 86.0826 122.535 92.0866 125.996C98.0735 129.447 106.387 131.602 115.605 131.602C124.824 131.602 133.137 129.447 139.124 125.996C145.128 122.535 148.677 117.85 148.677 112.811C148.677 107.772 145.128 103.087 139.124 99.6259C133.137 96.1747 124.824 94.0195 115.605 94.0195C106.387 94.0195 98.0735 96.1747 92.0866 99.6259ZM91.4407 98.5087C97.6571 94.9253 106.202 92.7295 115.605 92.7295C125.009 92.7295 133.554 94.9253 139.77 98.5087C145.969 102.082 149.969 107.116 149.969 112.811C149.969 118.506 145.969 123.54 139.77 127.113C133.554 130.697 125.009 132.892 115.605 132.892C106.202 132.892 97.6571 130.697 91.4407 127.113C85.2415 123.54 81.2422 118.506 81.2422 112.811C81.2422 107.116 85.2415 102.082 91.4407 98.5087Z" fill="#0CDDB3"/>
<path d="M77.0039 100.171L154.209 100.81V111.499C154.209 117.201 150.431 122.892 142.897 127.239C127.819 135.911 103.383 135.911 88.3045 127.239C80.7708 122.903 77.0039 117.201 77.0039 111.499V100.171Z" fill="url(#paint5_linear_19339_6010)"/>
<path d="M142.897 116.941C127.819 125.613 103.383 125.613 88.3047 116.941C73.2263 108.269 73.2372 94.1763 88.3047 85.5041C103.372 76.832 127.819 76.832 142.897 85.5041C157.976 94.1763 157.976 108.247 142.897 116.941Z" fill="url(#paint6_linear_19339_6010)"/>
<path d="M115.606 119.607C134.228 119.607 149.323 110.905 149.323 100.171C149.323 89.4364 134.228 80.7344 115.606 80.7344C96.9844 80.7344 81.8887 89.4364 81.8887 100.171C81.8887 110.905 96.9844 119.607 115.606 119.607Z" fill="url(#paint7_linear_19339_6010)"/>
<path fill-rule="evenodd" clip-rule="evenodd" d="M130.084 93.4332C129.38 93.0271 128.253 93.1083 127.548 93.5145L123.744 95.7077L120.081 94.8142L122.476 93.4332C123.18 93.0271 123.321 92.3772 122.617 91.9711C121.912 91.5649 120.785 91.5649 120.081 91.9711L116.629 93.9612L101.553 90.3058C100.848 90.1434 100.144 90.2246 99.5803 90.5495C99.0872 90.8338 98.9463 91.3212 99.1576 91.6868L105.639 100.216L102.257 102.166C101.553 102.572 101.412 103.222 102.116 103.628C102.821 104.034 103.948 104.034 104.653 103.628L107.118 102.206L108.668 104.318L104.934 106.471C104.23 106.877 104.089 107.527 104.793 107.933C105.498 108.339 106.625 108.339 107.33 107.933L110.218 106.268L115.642 113.294C115.995 113.822 117.051 114.025 117.967 113.822C118.179 113.782 118.319 113.7 118.46 113.619C118.953 113.335 119.165 112.888 118.883 112.482L113.036 104.806L124.448 98.2259L137.974 101.556C138.679 101.719 139.383 101.638 139.947 101.313C140.088 101.231 140.229 101.15 140.37 100.988C140.722 100.46 140.37 99.8505 139.454 99.6474L127.196 96.6419L130.084 94.9766C130.789 94.4892 130.859 93.7988 130.084 93.4332ZM104.3 93.1895L113.811 95.5046L108.386 98.632L104.3 93.1895ZM110.007 100.622L111.557 102.734L120.997 97.2918L117.333 96.3982L110.007 100.622Z" fill="white"/>
<path d="M132.004 174.225L209.209 174.864V185.553C209.209 191.255 205.431 196.946 197.897 201.293C182.819 209.965 158.383 209.965 143.305 201.293C135.771 196.956 132.004 191.255 132.004 185.553V174.225Z" fill="url(#paint8_linear_19339_6010)"/>
<path d="M170.606 197.51C191.926 197.51 209.209 187.546 209.209 175.255C209.209 162.964 191.926 153 170.606 153C149.287 153 132.004 162.964 132.004 175.255C132.004 187.546 149.287 197.51 170.606 197.51Z" fill="#16E3BA"/>
<path d="M132.004 161.574L209.209 162.214V172.913C209.209 178.604 205.431 184.306 197.897 188.642C182.819 197.314 158.383 197.314 143.305 188.642C135.771 184.306 132.004 178.604 132.004 172.913V161.574Z" fill="url(#paint9_linear_19339_6010)"/>
<path d="M132.004 162.225L209.209 162.864V173.553C209.209 179.255 205.431 184.946 197.897 189.293C182.819 197.965 158.383 197.965 143.305 189.293C135.771 184.956 132.004 179.255 132.004 173.553V162.225Z" fill="url(#paint10_linear_19339_6010)"/>
<path d="M170.606 185.51C191.926 185.51 209.209 175.546 209.209 163.255C209.209 150.964 191.926 141 170.606 141C149.287 141 132.004 150.964 132.004 163.255C132.004 175.546 149.287 185.51 170.606 185.51Z" fill="#16E3BA"/>
<path d="M132.004 149.574L209.209 150.214V160.913C209.209 166.604 205.431 172.306 197.897 176.642C182.819 185.314 158.383 185.314 143.305 176.642C135.771 172.306 132.004 166.604 132.004 160.913V149.574Z" fill="url(#paint11_linear_19339_6010)"/>
<path d="M132.004 150.225L209.209 150.864V161.553C209.209 167.255 205.431 172.946 197.897 177.293C182.819 185.965 158.383 185.965 143.305 177.293C135.771 172.956 132.004 167.255 132.004 161.553V150.225Z" fill="url(#paint12_linear_19339_6010)"/>
<path d="M170.606 173.51C191.926 173.51 209.209 163.546 209.209 151.255C209.209 138.964 191.926 129 170.606 129C149.287 129 132.004 138.964 132.004 151.255C132.004 163.546 149.287 173.51 170.606 173.51Z" fill="#16E3BA"/>
<path d="M132.004 137.574L209.209 138.214V148.913C209.209 154.604 205.431 160.306 197.897 164.642C182.819 173.314 158.383 173.314 143.305 164.642C135.771 160.306 132.004 154.604 132.004 148.913V137.574Z" fill="url(#paint13_linear_19339_6010)"/>
<path d="M132.004 137.751L209.209 138.391V149.079C209.209 154.781 205.431 160.472 197.897 164.819C182.819 173.491 158.383 173.491 143.305 164.819C135.771 160.483 132.004 154.781 132.004 149.079V137.751Z" fill="url(#paint14_linear_19339_6010)"/>
<path d="M170.606 161.036C191.926 161.036 209.209 151.072 209.209 138.781C209.209 126.49 191.926 116.526 170.606 116.526C149.287 116.526 132.004 126.49 132.004 138.781C132.004 151.072 149.287 161.036 170.606 161.036Z" fill="#16E3BA"/>
<path fill-rule="evenodd" clip-rule="evenodd" d="M147.087 124.566C141.083 128.027 137.534 132.712 137.534 137.751C137.534 142.791 141.083 147.475 147.087 150.936C153.074 154.388 161.387 156.543 170.605 156.543C179.824 156.543 188.137 154.388 194.124 150.936C200.128 147.475 203.677 142.791 203.677 137.751C203.677 132.712 200.128 128.027 194.124 124.566C188.137 121.115 179.824 118.96 170.605 118.96C161.387 118.96 153.074 121.115 147.087 124.566ZM146.441 123.449C152.657 119.866 161.202 117.67 170.605 117.67C180.009 117.67 188.554 119.866 194.77 123.449C200.969 127.023 204.969 132.056 204.969 137.751C204.969 143.447 200.969 148.48 194.77 152.054C188.554 155.637 180.009 157.833 170.605 157.833C161.202 157.833 152.657 155.637 146.441 152.054C140.241 148.48 136.242 143.447 136.242 137.751C136.242 132.056 140.241 127.023 146.441 123.449Z" fill="#0CDDB3"/>
<path d="M132.004 125.101L209.209 125.74V136.439C209.209 142.131 205.431 147.832 197.897 152.169C182.819 160.841 158.383 160.841 143.305 152.169C135.771 147.832 132.004 142.131 132.004 136.439V125.101Z" fill="url(#paint15_linear_19339_6010)"/>
<path d="M170.606 148.397C191.926 148.397 209.209 138.433 209.209 126.142C209.209 113.851 191.926 103.887 170.606 103.887C149.287 103.887 132.004 113.851 132.004 126.142C132.004 138.433 149.287 148.397 170.606 148.397Z" fill="#16E3BA"/>
<path fill-rule="evenodd" clip-rule="evenodd" d="M147.087 111.916C141.083 115.377 137.534 120.062 137.534 125.101C137.534 130.14 141.083 134.825 147.087 138.286C153.074 141.737 161.387 143.892 170.605 143.892C179.824 143.892 188.137 141.737 194.124 138.286C200.128 134.825 203.677 130.14 203.677 125.101C203.677 120.062 200.128 115.377 194.124 111.916C188.137 108.465 179.824 106.31 170.605 106.31C161.387 106.31 153.074 108.465 147.087 111.916ZM146.441 110.799C152.657 107.215 161.202 105.02 170.605 105.02C180.009 105.02 188.554 107.215 194.77 110.799C200.969 114.372 204.969 119.406 204.969 125.101C204.969 130.796 200.969 135.83 194.77 139.403C188.554 142.987 180.009 145.182 170.605 145.182C161.202 145.182 152.657 142.987 146.441 139.403C140.241 135.83 136.242 130.796 136.242 125.101C136.242 119.406 140.241 114.372 146.441 110.799Z" fill="#0CDDB3"/>
<path d="M132.004 112.472L209.209 113.111V123.8C209.209 129.502 205.431 135.193 197.897 139.54C182.819 148.212 158.383 148.212 143.305 139.54C135.771 135.204 132.004 129.502 132.004 123.8V112.472Z" fill="url(#paint16_linear_19339_6010)"/>
<path d="M170.606 135.746C191.926 135.746 209.209 125.782 209.209 113.491C209.209 101.2 191.926 91.2363 170.606 91.2363C149.287 91.2363 132.004 101.2 132.004 113.491C132.004 125.782 149.287 135.746 170.606 135.746Z" fill="#16E3BA"/>
<path fill-rule="evenodd" clip-rule="evenodd" d="M170.606 93.6699C162.062 93.6699 153.553 95.5504 147.091 99.2746C140.625 103.001 137.541 107.797 137.542 112.461C137.543 117.125 140.63 121.922 147.091 125.648C153.548 129.372 162.057 131.253 170.602 131.253C179.148 131.253 187.66 129.372 194.122 125.648C200.589 121.916 203.675 117.12 203.675 112.457C203.675 107.795 200.589 103.001 194.122 99.2746C187.66 95.5504 179.151 93.6699 170.606 93.6699ZM170.606 92.3799C179.317 92.3799 188.063 94.2934 194.768 98.1573C201.47 102.019 204.967 107.171 204.967 112.457C204.967 117.743 201.47 122.898 194.768 126.765L194.768 126.765C188.063 130.629 179.314 132.543 170.602 132.543C161.89 132.543 153.144 130.629 146.445 126.765C139.748 122.903 136.251 117.749 136.25 112.462C136.249 107.174 139.743 102.019 146.445 98.1573C153.15 94.2934 161.896 92.3799 170.606 92.3799Z" fill="#0CDDB3"/>
<path d="M132.004 99.8105L209.209 100.45V111.149C209.209 116.84 205.431 122.542 197.897 126.889C182.819 135.561 158.383 135.561 143.305 126.889C135.771 122.553 132.004 116.84 132.004 111.149V99.8105Z" fill="url(#paint17_linear_19339_6010)"/>
<path d="M197.897 116.591C182.819 125.263 158.383 125.263 143.305 116.591C128.226 107.919 128.237 93.8267 143.305 85.1545C158.372 76.4824 182.819 76.4824 197.897 85.1545C212.976 93.8267 212.976 107.897 197.897 116.591Z" fill="#16E3BA"/>
<path fill-rule="evenodd" clip-rule="evenodd" d="M147.087 86.6259C141.083 90.0869 137.534 94.7717 137.534 99.8109C137.534 104.85 141.083 109.535 147.087 112.996C153.074 116.447 161.387 118.602 170.605 118.602C179.824 118.602 188.137 116.447 194.124 112.996C200.128 109.535 203.677 104.85 203.677 99.8109C203.677 94.7717 200.128 90.0869 194.124 86.6259C188.137 83.1747 179.824 81.0195 170.605 81.0195C161.387 81.0195 153.074 83.1747 147.087 86.6259ZM146.441 85.5087C152.657 81.9253 161.202 79.7295 170.605 79.7295C180.009 79.7295 188.554 81.9253 194.77 85.5087C200.969 89.0823 204.969 94.1157 204.969 99.8109C204.969 105.506 200.969 110.54 194.77 114.113C188.554 117.697 180.009 119.892 170.605 119.892C161.202 119.892 152.657 117.697 146.441 114.113C140.241 110.54 136.242 105.506 136.242 99.8109C136.242 94.1157 140.241 89.0823 146.441 85.5087Z" fill="#0CDDB3"/>
<path d="M132.004 87.1709L209.209 87.8105V98.4989C209.209 104.201 205.431 109.892 197.897 114.239C182.819 122.911 158.383 122.911 143.305 114.239C135.771 109.903 132.004 104.201 132.004 98.4989V87.1709Z" fill="url(#paint18_linear_19339_6010)"/>
<path d="M197.897 103.941C182.819 112.613 158.383 112.613 143.305 103.941C128.226 95.2685 128.237 81.1763 143.305 72.5041C158.372 63.832 182.819 63.832 197.897 72.5041C212.976 81.1763 212.976 95.2468 197.897 103.941Z" fill="url(#paint19_linear_19339_6010)"/>
<path d="M170.606 106.607C189.228 106.607 204.323 97.9053 204.323 87.1708C204.323 76.4364 189.228 67.7344 170.606 67.7344C151.984 67.7344 136.889 76.4364 136.889 87.1708C136.889 97.9053 151.984 106.607 170.606 106.607Z" fill="url(#paint20_linear_19339_6010)"/>
<path fill-rule="evenodd" clip-rule="evenodd" d="M185.084 80.4332C184.38 80.0271 183.253 80.1083 182.548 80.5145L178.744 82.7077L175.081 81.8142L177.476 80.4332C178.18 80.0271 178.321 79.3772 177.617 78.9711C176.912 78.5649 175.785 78.5649 175.081 78.9711L171.629 80.9612L156.553 77.3058C155.848 77.1434 155.144 77.2246 154.58 77.5495C154.087 77.8338 153.946 78.3212 154.158 78.6868L160.639 87.216L157.257 89.1656C156.553 89.5717 156.412 90.2216 157.116 90.6278C157.821 91.0339 158.948 91.0339 159.653 90.6278L162.118 89.2062L163.668 91.3182L159.934 93.4708C159.23 93.877 159.089 94.5269 159.793 94.933C160.498 95.3392 161.625 95.3392 162.33 94.933L165.218 93.2678L170.642 100.294C170.995 100.822 172.051 101.025 172.967 100.822C173.179 100.782 173.319 100.7 173.46 100.619C173.953 100.335 174.165 99.8881 173.883 99.482L168.036 91.8056L179.448 85.2259L192.974 88.5564C193.679 88.7188 194.383 88.6376 194.947 88.3127C195.088 88.2314 195.229 88.1502 195.37 87.9877C195.722 87.4597 195.37 86.8505 194.454 86.6474L182.196 83.6419L185.084 81.9766C185.789 81.4892 185.859 80.7988 185.084 80.4332ZM159.3 80.1895L168.811 82.5046L163.386 85.632L159.3 80.1895ZM165.007 87.6222L166.557 89.7343L175.997 84.2918L172.333 83.3982L165.007 87.6222Z" fill="white"/>
<defs>
<linearGradient id="paint0_linear_19339_6010" x1="39.0002" y1="242.915" x2="255" y2="242.915" gradientUnits="userSpaceOnUse">
<stop stop-color="#17D1AA"/>
<stop offset="0.15" stop-color="#1ACBAF"/>
<stop offset="0.37" stop-color="#21B8BC"/>
<stop offset="0.62" stop-color="#2E9BD3"/>
<stop offset="0.89" stop-color="#3F71F1"/>
<stop offset="1" stop-color="#475FFF"/>
</linearGradient>
<linearGradient id="paint1_linear_19339_6010" x1="77.004" y1="184.323" x2="154.209" y2="184.323" gradientUnits="userSpaceOnUse">
<stop stop-color="#17D1AA"/>
<stop offset="0.15" stop-color="#1ACBAF"/>
<stop offset="0.37" stop-color="#21B8BC"/>
<stop offset="0.62" stop-color="#2E9BD3"/>
<stop offset="0.89" stop-color="#3F71F1"/>
<stop offset="1" stop-color="#475FFF"/>
</linearGradient>
<linearGradient id="paint2_linear_19339_6010" x1="77.004" y1="171.673" x2="154.209" y2="171.673" gradientUnits="userSpaceOnUse">
<stop stop-color="#17D1AA"/>
<stop offset="0.15" stop-color="#1ACBAF"/>
<stop offset="0.37" stop-color="#21B8BC"/>
<stop offset="0.62" stop-color="#2E9BD3"/>
<stop offset="0.89" stop-color="#3F71F1"/>
<stop offset="1" stop-color="#475FFF"/>
</linearGradient>
<linearGradient id="paint3_linear_19339_6010" x1="77.004" y1="159.044" x2="154.209" y2="159.044" gradientUnits="userSpaceOnUse">
<stop stop-color="#17D1AA"/>
<stop offset="0.15" stop-color="#1ACBAF"/>
<stop offset="0.37" stop-color="#21B8BC"/>
<stop offset="0.62" stop-color="#2E9BD3"/>
<stop offset="0.89" stop-color="#3F71F1"/>
<stop offset="1" stop-color="#475FFF"/>
</linearGradient>
<linearGradient id="paint4_linear_19339_6010" x1="77.004" y1="146.394" x2="154.209" y2="146.394" gradientUnits="userSpaceOnUse">
<stop stop-color="#17D1AA"/>
<stop offset="0.15" stop-color="#1ACBAF"/>
<stop offset="0.37" stop-color="#21B8BC"/>
<stop offset="0.62" stop-color="#2E9BD3"/>
<stop offset="0.89" stop-color="#3F71F1"/>
<stop offset="1" stop-color="#475FFF"/>
</linearGradient>
<linearGradient id="paint5_linear_19339_6010" x1="77.004" y1="133.743" x2="154.209" y2="133.743" gradientUnits="userSpaceOnUse">
<stop stop-color="#17D1AA"/>
<stop offset="0.15" stop-color="#1ACBAF"/>
<stop offset="0.37" stop-color="#21B8BC"/>
<stop offset="0.62" stop-color="#2E9BD3"/>
<stop offset="0.89" stop-color="#3F71F1"/>
<stop offset="1" stop-color="#475FFF"/>
</linearGradient>
<linearGradient id="paint6_linear_19339_6010" x1="77.0001" y1="123.445" x2="154.206" y2="123.445" gradientUnits="userSpaceOnUse">
<stop stop-color="#17D1AA"/>
<stop offset="0.15" stop-color="#1ACBAF"/>
<stop offset="0.37" stop-color="#21B8BC"/>
<stop offset="0.62" stop-color="#2E9BD3"/>
<stop offset="0.89" stop-color="#3F71F1"/>
<stop offset="1" stop-color="#475FFF"/>
</linearGradient>
<linearGradient id="paint7_linear_19339_6010" x1="122.999" y1="80.7344" x2="106.686" y2="120.491" gradientUnits="userSpaceOnUse">
<stop stop-color="#17D1AA"/>
<stop offset="0.15" stop-color="#1ACBAF"/>
<stop offset="0.37" stop-color="#21B8BC"/>
<stop offset="0.62" stop-color="#2E9BD3"/>
<stop offset="0.89" stop-color="#3F71F1"/>
<stop offset="1" stop-color="#475FFF"/>
</linearGradient>
<linearGradient id="paint8_linear_19339_6010" x1="132.004" y1="207.797" x2="209.209" y2="207.797" gradientUnits="userSpaceOnUse">
<stop stop-color="#17D1AA"/>
<stop offset="0.15" stop-color="#1ACBAF"/>
<stop offset="0.37" stop-color="#21B8BC"/>
<stop offset="0.62" stop-color="#2E9BD3"/>
<stop offset="0.89" stop-color="#3F71F1"/>
<stop offset="1" stop-color="#475FFF"/>
</linearGradient>
<linearGradient id="paint9_linear_19339_6010" x1="132.004" y1="195.146" x2="209.209" y2="195.146" gradientUnits="userSpaceOnUse">
<stop stop-color="#17D1AA"/>
<stop offset="0.15" stop-color="#1ACBAF"/>
<stop offset="0.37" stop-color="#21B8BC"/>
<stop offset="0.62" stop-color="#2E9BD3"/>
<stop offset="0.89" stop-color="#3F71F1"/>
<stop offset="1" stop-color="#475FFF"/>
</linearGradient>
<linearGradient id="paint10_linear_19339_6010" x1="132.004" y1="195.797" x2="209.209" y2="195.797" gradientUnits="userSpaceOnUse">
<stop stop-color="#17D1AA"/>
<stop offset="0.15" stop-color="#1ACBAF"/>
<stop offset="0.37" stop-color="#21B8BC"/>
<stop offset="0.62" stop-color="#2E9BD3"/>
<stop offset="0.89" stop-color="#3F71F1"/>
<stop offset="1" stop-color="#475FFF"/>
</linearGradient>
<linearGradient id="paint11_linear_19339_6010" x1="132.004" y1="183.146" x2="209.209" y2="183.146" gradientUnits="userSpaceOnUse">
<stop stop-color="#17D1AA"/>
<stop offset="0.15" stop-color="#1ACBAF"/>
<stop offset="0.37" stop-color="#21B8BC"/>
<stop offset="0.62" stop-color="#2E9BD3"/>
<stop offset="0.89" stop-color="#3F71F1"/>
<stop offset="1" stop-color="#475FFF"/>
</linearGradient>
<linearGradient id="paint12_linear_19339_6010" x1="132.004" y1="183.797" x2="209.209" y2="183.797" gradientUnits="userSpaceOnUse">
<stop stop-color="#17D1AA"/>
<stop offset="0.15" stop-color="#1ACBAF"/>
<stop offset="0.37" stop-color="#21B8BC"/>
<stop offset="0.62" stop-color="#2E9BD3"/>
<stop offset="0.89" stop-color="#3F71F1"/>
<stop offset="1" stop-color="#475FFF"/>
</linearGradient>
<linearGradient id="paint13_linear_19339_6010" x1="132.004" y1="171.146" x2="209.209" y2="171.146" gradientUnits="userSpaceOnUse">
<stop stop-color="#17D1AA"/>
<stop offset="0.15" stop-color="#1ACBAF"/>
<stop offset="0.37" stop-color="#21B8BC"/>
<stop offset="0.62" stop-color="#2E9BD3"/>
<stop offset="0.89" stop-color="#3F71F1"/>
<stop offset="1" stop-color="#475FFF"/>
</linearGradient>
<linearGradient id="paint14_linear_19339_6010" x1="132.004" y1="171.323" x2="209.209" y2="171.323" gradientUnits="userSpaceOnUse">
<stop stop-color="#17D1AA"/>
<stop offset="0.15" stop-color="#1ACBAF"/>
<stop offset="0.37" stop-color="#21B8BC"/>
<stop offset="0.62" stop-color="#2E9BD3"/>
<stop offset="0.89" stop-color="#3F71F1"/>
<stop offset="1" stop-color="#475FFF"/>
</linearGradient>
<linearGradient id="paint15_linear_19339_6010" x1="132.004" y1="158.673" x2="209.209" y2="158.673" gradientUnits="userSpaceOnUse">
<stop stop-color="#17D1AA"/>
<stop offset="0.15" stop-color="#1ACBAF"/>
<stop offset="0.37" stop-color="#21B8BC"/>
<stop offset="0.62" stop-color="#2E9BD3"/>
<stop offset="0.89" stop-color="#3F71F1"/>
<stop offset="1" stop-color="#475FFF"/>
</linearGradient>
<linearGradient id="paint16_linear_19339_6010" x1="132.004" y1="146.044" x2="209.209" y2="146.044" gradientUnits="userSpaceOnUse">
<stop stop-color="#17D1AA"/>
<stop offset="0.15" stop-color="#1ACBAF"/>
<stop offset="0.37" stop-color="#21B8BC"/>
<stop offset="0.62" stop-color="#2E9BD3"/>
<stop offset="0.89" stop-color="#3F71F1"/>
<stop offset="1" stop-color="#475FFF"/>
</linearGradient>
<linearGradient id="paint17_linear_19339_6010" x1="132.004" y1="133.394" x2="209.209" y2="133.394" gradientUnits="userSpaceOnUse">
<stop stop-color="#17D1AA"/>
<stop offset="0.15" stop-color="#1ACBAF"/>
<stop offset="0.37" stop-color="#21B8BC"/>
<stop offset="0.62" stop-color="#2E9BD3"/>
<stop offset="0.89" stop-color="#3F71F1"/>
<stop offset="1" stop-color="#475FFF"/>
</linearGradient>
<linearGradient id="paint18_linear_19339_6010" x1="132.004" y1="120.743" x2="209.209" y2="120.743" gradientUnits="userSpaceOnUse">
<stop stop-color="#17D1AA"/>
<stop offset="0.15" stop-color="#1ACBAF"/>
<stop offset="0.37" stop-color="#21B8BC"/>
<stop offset="0.62" stop-color="#2E9BD3"/>
<stop offset="0.89" stop-color="#3F71F1"/>
<stop offset="1" stop-color="#475FFF"/>
</linearGradient>
<linearGradient id="paint19_linear_19339_6010" x1="132" y1="110.445" x2="209.206" y2="110.445" gradientUnits="userSpaceOnUse">
<stop stop-color="#17D1AA"/>
<stop offset="0.15" stop-color="#1ACBAF"/>
<stop offset="0.37" stop-color="#21B8BC"/>
<stop offset="0.62" stop-color="#2E9BD3"/>
<stop offset="0.89" stop-color="#3F71F1"/>
<stop offset="1" stop-color="#475FFF"/>
</linearGradient>
<linearGradient id="paint20_linear_19339_6010" x1="177.999" y1="67.7344" x2="161.686" y2="107.491" gradientUnits="userSpaceOnUse">
<stop stop-color="#17D1AA"/>
<stop offset="0.15" stop-color="#1ACBAF"/>
<stop offset="0.37" stop-color="#21B8BC"/>
<stop offset="0.62" stop-color="#2E9BD3"/>
<stop offset="0.89" stop-color="#3F71F1"/>
<stop offset="1" stop-color="#475FFF"/>
</linearGradient>
</defs>
</svg>
