<svg xmlns="http://www.w3.org/2000/svg" width="40" height="40" viewBox="0 0 33.3333 31.6667" fill="none"><path d="M16.6667 10C17.5871 10 18.3333 10.7462 18.3333 11.6667V18.3333C18.3333 19.2538 17.5871 20 16.6667 20C15.7462 20 15 19.2538 15 18.3333V11.6667C15 10.7462 15.7462 10 16.6667 10Z" fill="#DA493F"/><path d="M16.6667 21.6667C15.7462 21.6667 15 22.4129 15 23.3333C15 24.2538 15.7462 25 16.6667 25H16.6833C17.6038 25 18.35 24.2538 18.35 23.3333C18.35 22.4129 17.6038 21.6667 16.6833 21.6667H16.6667Z" fill="#DA493F"/><path fill-rule="evenodd" clip-rule="evenodd" d="M14.288 0.67253C15.0044 0.234461 15.8255 0 16.6667 0C17.5079 0 18.329 0.234461 19.0454 0.67253C19.7601 1.10961 20.3419 1.73138 20.7396 2.46665L20.7411 2.46941L32.7253 24.4779L32.7272 24.4814C33.1259 25.2075 33.3331 26.025 33.3333 26.853C33.3335 27.6822 33.1261 28.5011 32.7265 29.2283C32.3267 29.9559 31.7459 30.5703 31.0346 31.002C30.3226 31.4341 29.5082 31.6656 28.6739 31.6665H4.69838C3.86302 31.6728 3.04555 31.4477 2.32921 31.0205C1.61112 30.5921 1.0236 29.9783 0.618271 29.2491C0.213185 28.5203 0.0017695 27.698 1.10598e-05 26.8648C-0.0017444 26.0329 0.205497 25.2111 0.6061 24.4815L0.608122 24.4779L12.5923 2.46941L12.5938 2.46666C12.9915 1.73139 13.5733 1.10961 14.288 0.67253ZM16.6667 3.33333C16.4474 3.33333 16.2269 3.39408 16.027 3.51633C15.8264 3.63901 15.6504 3.82158 15.5253 4.05334L15.5225 4.05842L3.52857 26.0848C3.40197 26.3149 3.33275 26.5818 3.33334 26.8577C3.33392 27.1337 3.40424 27.4002 3.53174 27.6296C3.65899 27.8585 3.83596 28.0379 4.03678 28.1577C4.23689 28.2771 4.45693 28.3353 4.67551 28.3333L4.69125 28.3331L28.6703 28.3332C28.8879 28.333 29.1065 28.273 29.3051 28.1525C29.5043 28.0315 29.6795 27.8516 29.8052 27.623C29.931 27.3939 30.0001 27.1283 30 26.8538C29.9999 26.5792 29.9308 26.3137 29.8048 26.0847L29.8013 26.0784L17.8109 4.05842L17.8081 4.05334C17.683 3.82158 17.507 3.63901 17.3064 3.51633C17.1065 3.39409 16.886 3.33333 16.6667 3.33333Z" fill="#DA493F"/></svg>