<svg width="65" height="65" viewBox="0 0 65 65" fill="none" xmlns="http://www.w3.org/2000/svg">
<path d="M54.8438 18.2812H14.2188C13.68 18.2812 13.1634 18.0672 12.7824 17.6863C12.4015 17.3054 12.1875 16.7887 12.1875 16.25C12.1875 15.7113 12.4015 15.1946 12.7824 14.8137C13.1634 14.4328 13.68 14.2188 14.2188 14.2188H48.75C49.2887 14.2188 49.8054 14.0047 50.1863 13.6238C50.5672 13.2429 50.7812 12.7262 50.7812 12.1875C50.7812 11.6488 50.5672 11.1321 50.1863 10.7512C49.8054 10.3703 49.2887 10.1562 48.75 10.1562H14.2188C12.6026 10.1562 11.0526 10.7983 9.90982 11.9411C8.76702 13.0839 8.125 14.6338 8.125 16.25V48.75C8.125 50.3662 8.76702 51.9161 9.90982 53.0589C11.0526 54.2017 12.6026 54.8438 14.2188 54.8438H54.8438C55.9212 54.8438 56.9545 54.4157 57.7164 53.6539C58.4782 52.892 58.9062 51.8587 58.9062 50.7812V22.3438C58.9062 21.2663 58.4782 20.233 57.7164 19.4711C56.9545 18.7093 55.9212 18.2812 54.8438 18.2812ZM45.7031 38.5938C45.1005 38.5938 44.5114 38.4151 44.0104 38.0803C43.5093 37.7455 43.1188 37.2696 42.8882 36.7129C42.6576 36.1561 42.5972 35.5435 42.7148 34.9525C42.8324 34.3614 43.1225 33.8185 43.5487 33.3924C43.9748 32.9663 44.5177 32.6761 45.1087 32.5585C45.6997 32.441 46.3124 32.5013 46.8691 32.7319C47.4259 32.9625 47.9017 33.3531 48.2365 33.8541C48.5713 34.3552 48.75 34.9443 48.75 35.5469C48.75 36.355 48.429 37.1299 47.8576 37.7013C47.2862 38.2727 46.5112 38.5938 45.7031 38.5938Z" fill="#666666"/>
</svg>
