<svg width="16" height="16" viewBox="0 0 16 16" fill="none" xmlns="http://www.w3.org/2000/svg">
<path fill-rule="evenodd" clip-rule="evenodd" d="M4.22015 6.22C4.36078 6.07955 4.5514 6.00066 4.75015 6.00066C4.9489 6.00066 5.13953 6.07955 5.28015 6.22L8.00015 8.94L10.7202 6.22C10.8623 6.08752 11.0504 6.0154 11.2447 6.01882C11.439 6.02225 11.6244 6.10097 11.7618 6.23838C11.8992 6.37579 11.9779 6.56118 11.9813 6.75548C11.9848 6.94978 11.9126 7.13782 11.7802 7.28L8.53015 10.53C8.38953 10.6705 8.1989 10.7493 8.00015 10.7493C7.8014 10.7493 7.61078 10.6705 7.47015 10.53L4.22015 7.28C4.0797 7.13937 4.00081 6.94875 4.00081 6.75C4.00081 6.55125 4.0797 6.36063 4.22015 6.22Z" fill="white" fill-opacity="0.7"/>
</svg>
