<svg width="25" height="24" viewBox="0 0 25 24" fill="none" xmlns="http://www.w3.org/2000/svg">
<path fill-rule="evenodd" clip-rule="evenodd" d="M8.9 4C5.36538 4 2.5 6.86538 2.5 10.4C2.5 13.9346 5.36538 16.8 8.9 16.8C10.379 16.8 11.7408 16.2983 12.8245 15.4559L17.1343 19.7657C17.4467 20.0781 17.9533 20.0781 18.2657 19.7657C18.5781 19.4533 18.5781 18.9467 18.2657 18.6343L13.9559 14.3245C14.7983 13.2408 15.3 11.879 15.3 10.4C15.3 6.86538 12.4346 4 8.9 4ZM4.1 10.4C4.1 7.74903 6.24903 5.6 8.9 5.6C11.551 5.6 13.7 7.74903 13.7 10.4C13.7 13.051 11.551 15.2 8.9 15.2C6.24903 15.2 4.1 13.051 4.1 10.4Z" fill="white"/>
</svg>

