<svg xmlns="http://www.w3.org/2000/svg" width="16" height="16" viewBox="0 0 16 16" fill="none">
  <path fill-rule="evenodd" clip-rule="evenodd" d="M6.37064 2C3.9568 2 2 3.95683 2 6.37068C2 8.78453 3.9568 10.7414 6.37064 10.7414C7.30681 10.7414 8.17423 10.447 8.88542 9.94584L12.72 13.7804C13.0128 14.0733 13.4877 14.0733 13.7806 13.7804C14.0735 13.4875 14.0735 13.0126 13.7806 12.7198L9.94602 8.88512C10.447 8.17399 10.7413 7.30669 10.7413 6.37068C10.7413 3.95683 8.78449 2 6.37064 2ZM3.5 6.37068C3.5 4.78524 4.78524 3.5 6.37064 3.5C7.95605 3.5 9.24128 4.78524 9.24128 6.37068C9.24128 7.95611 7.95605 9.24135 6.37064 9.24135C4.78524 9.24135 3.5 7.95611 3.5 6.37068Z" fill="#64748B"/>
</svg>