<svg xmlns="http://www.w3.org/2000/svg" width="16" height="16" viewBox="0 0 16 16" fill="none">
  <path d="M14.25 9.28C13.84 9.28 13.5 9.62 13.5 10.03V13.5H2.5V2.5H5.97C6.38 2.5 6.72 2.16 6.72 1.75C6.72 1.34 6.38 1 5.97 1H1V15H15V10.03C15 9.62 14.66 9.28 14.25 9.28Z" fill="#06B6D4"/>
  <path d="M9.98 2.5H12.44L5.29 9.65C5 9.94 5 10.42 5.29 10.71C5.58 11 6.06 11 6.35 10.71L13.5 3.56V6.02C13.5 6.43 13.84 6.77 14.25 6.77C14.66 6.77 15 6.43 15 6.02V1H9.98C9.57 1 9.23 1.34 9.23 1.75C9.23 2.16 9.57 2.5 9.98 2.5Z" fill="#06B6D4"/>
</svg>
