<svg width="24" height="24" viewBox="0 0 24 24" fill="none" xmlns="http://www.w3.org/2000/svg">
<g clip-path="url(#clip0_2393_1914)">
<path d="M11.925 22.275C6.6938 22.275 1.05005 18.9938 1.05005 11.7938C1.05005 4.59375 6.6938 1.3125 11.925 1.3125C14.8313 1.3125 17.5125 2.26875 19.5 4.0125C21.6563 5.925 22.8 8.625 22.8 11.7938C22.8 14.9625 21.6563 17.6438 19.5 19.5563C17.5125 21.3 14.8125 22.275 11.925 22.275Z" fill="url(#paint0_radial_2393_1914)"/>
<path d="M20.9045 5.56348C21.9039 7.17598 22.4251 9.09598 22.4251 11.2316C22.4251 14.4004 21.2814 17.0816 19.1251 18.9941C17.1376 20.7379 14.4376 21.7129 11.5501 21.7129C8.16386 21.7129 4.60511 20.3347 2.51636 17.4116C4.53386 20.7229 8.32698 22.2754 11.9251 22.2754C14.8126 22.2754 17.5126 21.3004 19.5001 19.5566C21.6564 17.6441 22.8001 14.9629 22.8001 11.7941C22.8001 9.40535 22.1495 7.28285 20.9045 5.56348Z" fill="#EB8F00"/>
<path opacity="0.8" d="M5.10938 15.0615C6.92156 15.0615 8.39062 13.5925 8.39062 11.7803C8.39062 9.96809 6.92156 8.49902 5.10938 8.49902C3.29719 8.49902 1.82812 9.96809 1.82812 11.7803C1.82812 13.5925 3.29719 15.0615 5.10938 15.0615Z" fill="url(#paint1_radial_2393_1914)"/>
<path opacity="0.8" d="M18.8906 15.0615C20.7028 15.0615 22.1719 13.5925 22.1719 11.7803C22.1719 9.96809 20.7028 8.49902 18.8906 8.49902C17.0784 8.49902 15.6094 9.96809 15.6094 11.7803C15.6094 13.5925 17.0784 15.0615 18.8906 15.0615Z" fill="url(#paint2_radial_2393_1914)"/>
<path d="M18.8794 12.1945C16.9537 13.312 14.5762 13.9738 12 13.9738C9.42375 13.9738 7.04625 13.312 5.12062 12.1945C4.76625 11.9901 4.395 12.4326 4.65937 12.742C6.40312 14.7801 9.04312 16.0795 12 16.0795C14.9569 16.0795 17.5969 14.7801 19.3406 12.742C19.6069 12.4307 19.2337 11.9882 18.8794 12.1945Z" fill="#422B0D"/>
<path d="M9.29245 8.27227C9.29245 8.27227 9.28307 8.25914 9.26245 8.23477C9.2437 8.21039 9.21745 8.17664 9.1837 8.13352C9.15557 8.10352 9.12182 8.06789 9.08245 8.02664C9.04307 7.98164 8.99432 7.93477 8.94557 7.88602C8.89495 7.83914 8.84245 7.79039 8.78807 7.75102C8.73557 7.70789 8.67745 7.67602 8.63057 7.64977C8.58182 7.61977 8.53682 7.61227 8.5087 7.60289C8.4937 7.59727 8.48057 7.59727 8.46932 7.59539C8.4637 7.59727 8.45807 7.59352 8.45245 7.59539L8.44495 7.59727H8.4412H8.43932C8.46182 7.59727 8.3887 7.59914 8.48995 7.59539L8.38682 7.59914C8.36057 7.59914 8.37745 7.60102 8.37932 7.60102C8.38495 7.60102 8.3887 7.60102 8.39245 7.59914C8.40745 7.59352 8.39245 7.59914 8.3887 7.59914C8.38307 7.59914 8.37557 7.60102 8.36807 7.60477C8.33807 7.61414 8.29307 7.62164 8.2462 7.65164C8.19932 7.67789 8.1412 7.70977 8.0887 7.75289C8.0362 7.79414 7.98182 7.84102 7.9312 7.88789C7.8337 7.98352 7.74745 8.07914 7.68745 8.14852C7.62557 8.21977 7.59182 8.26102 7.59182 8.26102L7.5487 8.31164C7.29182 8.61164 6.81932 8.66227 6.49495 8.42602C6.2737 8.26477 6.17807 8.01352 6.21932 7.77352C6.21932 7.77352 6.23245 7.69664 6.26995 7.56352C6.30932 7.43039 6.37495 7.24102 6.50432 7.01789C6.6337 6.79664 6.8212 6.53602 7.13807 6.29789C7.2937 6.18164 7.48307 6.06539 7.70807 5.98664C7.76245 5.96602 7.82057 5.94727 7.88057 5.93227C7.94245 5.91727 7.9912 5.90039 8.07557 5.88914L8.19182 5.87227C8.22745 5.86852 8.27995 5.86289 8.28745 5.86289L8.39057 5.85539L8.4487 5.85352H8.45432H8.46557L8.48995 5.85539L8.5387 5.85727L8.63432 5.86289C8.69807 5.86852 8.75995 5.87977 8.82182 5.88914C8.9437 5.91164 9.06557 5.94352 9.1762 5.98477C9.4012 6.06352 9.59057 6.17789 9.7462 6.29602C10.0631 6.53414 10.2506 6.79477 10.3799 7.01602C10.4456 7.12664 10.4943 7.23164 10.5299 7.32352C10.5693 7.41164 10.5974 7.50539 10.6199 7.57477C10.6406 7.64227 10.6406 7.67789 10.6499 7.70977C10.6556 7.73977 10.6574 7.75664 10.6574 7.75664C10.7268 8.13539 10.4474 8.49352 10.0368 8.55539C9.7387 8.60227 9.45557 8.48227 9.29245 8.27227Z" fill="#422B0D"/>
<path d="M16.3236 8.27227C16.3236 8.27227 16.3142 8.25914 16.2936 8.23477C16.2749 8.21039 16.2486 8.17664 16.2149 8.13352C16.1867 8.10352 16.153 8.06789 16.1136 8.02664C16.0742 7.98164 16.0255 7.93477 15.9767 7.88602C15.9261 7.83914 15.8736 7.79039 15.8192 7.75102C15.7667 7.70789 15.7086 7.67602 15.6617 7.64977C15.613 7.61977 15.568 7.61227 15.5399 7.60289C15.5249 7.59727 15.5117 7.59727 15.5005 7.59539C15.4949 7.59727 15.4892 7.59352 15.4836 7.59539L15.4761 7.59727H15.4724H15.4705H15.4686C15.4911 7.59727 15.418 7.59914 15.5192 7.59539L15.4161 7.59914C15.3899 7.59914 15.4067 7.60102 15.4086 7.60102C15.4142 7.60102 15.418 7.60102 15.4217 7.59914C15.4367 7.59352 15.4217 7.59914 15.418 7.59914C15.4124 7.59914 15.4049 7.60102 15.3974 7.60477C15.3674 7.61414 15.3224 7.62164 15.2755 7.65164C15.2286 7.67789 15.1705 7.70977 15.118 7.75289C15.0655 7.79414 15.0111 7.84102 14.9605 7.88789C14.863 7.98352 14.7767 8.07914 14.7167 8.14852C14.6549 8.21977 14.6211 8.26102 14.6211 8.26102L14.578 8.31164C14.3211 8.61164 13.8486 8.66227 13.5242 8.42602C13.303 8.26477 13.2074 8.01352 13.2486 7.77352C13.2486 7.77352 13.2617 7.69664 13.2992 7.56352C13.3386 7.43039 13.4042 7.24102 13.5336 7.01789C13.663 6.79664 13.8505 6.53602 14.1674 6.29789C14.323 6.18164 14.5124 6.06539 14.7374 5.98664C14.7917 5.96602 14.8499 5.94727 14.9099 5.93227C14.9717 5.91727 15.0205 5.90039 15.1049 5.88914L15.2211 5.87227C15.2567 5.86852 15.3092 5.86289 15.3167 5.86289L15.4199 5.85539L15.478 5.85352H15.4836H15.4949L15.5192 5.85539L15.568 5.85727L15.6636 5.86289C15.7274 5.86852 15.7892 5.87977 15.8511 5.88914C15.973 5.91164 16.0949 5.94352 16.2055 5.98477C16.4305 6.06352 16.6199 6.17789 16.7755 6.29602C17.0924 6.53414 17.2799 6.79477 17.4092 7.01602C17.4749 7.12664 17.5236 7.23164 17.5592 7.32352C17.5986 7.41164 17.6267 7.50539 17.6492 7.57477C17.6699 7.64227 17.6699 7.67789 17.6792 7.70977C17.6849 7.73977 17.6867 7.75664 17.6867 7.75664C17.7561 8.13539 17.4767 8.49352 17.0661 8.55539C16.768 8.60227 16.4849 8.48227 16.3236 8.27227Z" fill="#422B0D"/>
<path d="M20.7712 0.228934C19.4475 0.759559 19.3312 2.26518 19.3312 2.26518C19.3312 2.26518 18.4631 1.32581 17.2875 1.72143C15.8756 2.19768 15.165 3.71268 16.3087 5.34768C17.6175 7.21706 21.8175 7.74956 21.8175 7.74956C21.8175 7.74956 24.1669 4.68018 23.8406 2.24643C23.5762 0.268309 21.7725 -0.172316 20.7712 0.228934Z" fill="#F44336"/>
<path d="M20.7712 0.228934C20.7712 0.228934 20.4468 0.362059 20.3193 0.487684C20.3193 0.487684 21.2118 0.395809 22.02 0.857059C22.5525 1.16081 23.0475 1.70456 23.2275 2.67393C23.6156 4.77393 21.9581 7.53018 21.8306 7.73268C22.0012 7.50581 24.1556 4.58456 23.8425 2.24643C23.5762 0.268309 21.7725 -0.172316 20.7712 0.228934Z" fill="#C62828"/>
<path d="M19.4568 2.43C19.3274 2.27437 19.1737 2.13937 19.0799 2.06437C18.6074 1.6875 18.2137 1.59 17.7037 1.63687C17.1937 1.68187 16.738 1.96687 16.738 1.96687C16.738 1.96687 17.233 1.77937 17.9362 2.115C18.3055 2.29125 18.6299 2.55375 18.9018 2.86125C18.9993 2.97187 19.0968 3.09187 19.228 3.1575C19.3593 3.22312 19.543 3.21375 19.633 3.09562C19.7737 2.90437 19.6387 2.6475 19.4568 2.43Z" fill="#C62828"/>
<path d="M16.3911 3.7745C16.4024 3.27763 16.5842 2.67013 17.1824 2.642C17.5011 2.627 17.818 3.03575 17.7074 3.4145C17.5199 4.05575 17.6586 4.277 17.743 4.48513C17.8424 4.73638 17.9942 5.01013 17.8874 5.25763C17.7805 5.50513 17.5311 5.522 17.2105 5.30825C17.1392 5.26325 16.3686 4.79075 16.3911 3.7745Z" fill="#FF847A"/>
<path d="M21.8082 18.0483C20.612 17.2721 19.3145 18.0446 19.3145 18.0446C19.3145 18.0446 19.5826 16.794 18.5813 16.0608C17.3795 15.1796 15.7313 15.474 15.0545 17.3508C14.2801 19.4977 16.2657 23.2365 16.2657 23.2365C16.2657 23.2365 20.1282 23.3883 21.9282 21.7196C23.3926 20.364 22.712 18.6352 21.8082 18.0483Z" fill="#F44336"/>
<path d="M21.8083 18.0484C21.8083 18.0484 21.512 17.8609 21.3358 17.8271C21.3358 17.8271 21.9245 18.504 22.0145 19.4303C22.0726 20.0415 21.9133 20.7596 21.2251 21.4646C19.7326 22.9928 16.5245 23.2271 16.2864 23.2384C16.5695 23.2478 20.1995 23.3246 21.9301 21.7215C23.3926 20.364 22.712 18.6353 21.8083 18.0484Z" fill="#C62828"/>
<path d="M19.2508 18.2429C19.3033 18.0479 19.3258 17.8454 19.3333 17.7254C19.369 17.1217 19.2208 16.7429 18.8908 16.3529C18.559 15.9629 18.064 15.7529 18.064 15.7529C18.064 15.7529 18.5008 16.0492 18.6321 16.8179C18.7015 17.2211 18.6733 17.6373 18.5777 18.0367C18.544 18.1811 18.5008 18.3273 18.5252 18.4736C18.5496 18.6198 18.6602 18.7642 18.8083 18.7679C19.0465 18.7754 19.1777 18.5167 19.2508 18.2429Z" fill="#C62828"/>
<path d="M16.3857 16.513C16.7982 16.2355 17.3982 16.033 17.7676 16.5055C17.9626 16.7567 17.8126 17.2499 17.4395 17.3792C16.8076 17.5949 16.7064 17.8367 16.5845 18.0242C16.4382 18.2511 16.2995 18.5324 16.0351 18.5867C15.7707 18.6411 15.6151 18.448 15.6039 18.0617C15.602 17.983 15.542 17.0811 16.3857 16.513Z" fill="#FF847A"/>
<path d="M5.2481 11.2072C3.9131 11.7078 3.7631 13.2097 3.7631 13.2097C3.7631 13.2097 2.9156 12.2516 1.73247 12.621C0.309349 13.0653 -0.433151 14.5653 0.674974 16.2247C1.94247 18.1222 6.12935 18.7466 6.12935 18.7466C6.12935 18.7466 8.54622 15.7297 8.27435 13.2903C8.0531 11.3066 6.25872 10.8285 5.2481 11.2072Z" fill="#F44336"/>
<path d="M5.24803 11.2072C5.24803 11.2072 4.92178 11.3347 4.79053 11.4566C4.79053 11.4566 5.6849 11.3853 6.48365 11.8634C7.00865 12.1784 7.4924 12.7334 7.6499 13.7066C7.99115 15.8159 6.27365 18.5347 6.1424 18.7334C6.31678 18.5103 8.53678 15.6359 8.27428 13.2922C8.05303 11.3066 6.25865 10.8284 5.24803 11.2072Z" fill="#C62828"/>
<path d="M3.88687 13.3804C3.76124 13.2229 3.61124 13.0842 3.51749 13.0073C3.05249 12.6192 2.66062 12.5142 2.15062 12.5479C1.63874 12.5817 1.17749 12.8573 1.17749 12.8573C1.17749 12.8573 1.67624 12.681 2.37187 13.0317C2.73749 13.2154 3.05624 13.4854 3.32061 13.7985C3.41624 13.911 3.50999 14.0329 3.64124 14.1004C3.77249 14.1679 3.95624 14.1642 4.04624 14.0479C4.19249 13.8604 4.06312 13.5998 3.88687 13.3804Z" fill="#C62828"/>
<path d="M0.791319 14.6558C0.813819 14.1589 1.00694 13.5551 1.60694 13.5401C1.92569 13.5326 2.23319 13.947 2.11319 14.3239C1.91257 14.9614 2.04569 15.1845 2.12444 15.3945C2.22007 15.6476 2.36444 15.9251 2.25194 16.1708C2.13944 16.4164 1.89007 16.4276 1.57319 16.2064C1.50757 16.1595 0.748194 15.672 0.791319 14.6558Z" fill="#FF847A"/>
</g>
<defs>
<radialGradient id="paint0_radial_2393_1914" cx="0" cy="0" r="1" gradientUnits="userSpaceOnUse" gradientTransform="translate(11.925 11.7937) scale(10.6799 10.6799)">
<stop offset="0.5" stop-color="#FDE030"/>
<stop offset="0.9188" stop-color="#F7C02B"/>
<stop offset="1" stop-color="#F4A223"/>
</radialGradient>
<radialGradient id="paint1_radial_2393_1914" cx="0" cy="0" r="1" gradientUnits="userSpaceOnUse" gradientTransform="translate(5.10948 11.78) scale(3.56963 3.39098)">
<stop stop-color="#ED7770"/>
<stop offset="0.9" stop-color="#ED7770" stop-opacity="0"/>
</radialGradient>
<radialGradient id="paint2_radial_2393_1914" cx="0" cy="0" r="1" gradientUnits="userSpaceOnUse" gradientTransform="translate(18.8911 11.78) scale(3.56963 3.39098)">
<stop stop-color="#ED7770"/>
<stop offset="0.9" stop-color="#ED7770" stop-opacity="0"/>
</radialGradient>
<clipPath id="clip0_2393_1914">
<rect width="24" height="24" fill="white"/>
</clipPath>
</defs>
</svg>
