<svg xmlns="http://www.w3.org/2000/svg" width="56" height="56" viewBox="0 0 56 56" fill="none">
  <path d="M4.48115 0.768845C3.45603 -0.256282 1.79397 -0.256282 0.768845 0.768845C-0.256282 1.79397 -0.256282 3.45603 0.768845 4.48115L24.2877 28L0.768846 51.5188C-0.256281 52.544 -0.256281 54.206 0.768846 55.2312C1.79397 56.2563 3.45603 56.2563 4.48116 55.2312L28 31.7123L51.5188 55.2312C52.544 56.2563 54.206 56.2563 55.2312 55.2312C56.2563 54.206 56.2563 52.544 55.2312 51.5188L31.7123 28L55.2312 4.48115C56.2563 3.45603 56.2563 1.79397 55.2312 0.768845C54.206 -0.256282 52.544 -0.256282 51.5188 0.768845L28 24.2877L4.48115 0.768845Z" fill="#F08282"/>
</svg>
