<svg xmlns="http://www.w3.org/2000/svg" width="16" height="16" viewBox="0 0 16 16" fill="none">
  <path d="M3.28033 2.21967C2.98744 1.92678 2.51256 1.92678 2.21967 2.21967C1.92678 2.51256 1.92678 2.98744 2.21967 3.28033L6.93934 8L2.21967 12.7197C1.92678 13.0126 1.92678 13.4874 2.21967 13.7803C2.51256 14.0732 2.98744 14.0732 3.28033 13.7803L8 9.06066L12.7197 13.7803C13.0126 14.0732 13.4874 14.0732 13.7803 13.7803C14.0732 13.4874 14.0732 13.0126 13.7803 12.7197L9.06066 8L13.7803 3.28033C14.0732 2.98744 14.0732 2.51256 13.7803 2.21967C13.4874 1.92678 13.0126 1.92678 12.7197 2.21967L8 6.93934L3.28033 2.21967Z" fill="#7685A0"/>
</svg>