<svg width="280" height="280" viewBox="0 0 280 280" fill="none" xmlns="http://www.w3.org/2000/svg">
<path d="M254.997 181.937L254.918 170.046L240.439 167.124L164.378 123.249C153.028 116.701 133.178 117.485 120.038 125.002L49.8629 165.144C49.2829 165.471 48.7386 165.813 48.2087 166.155L39 168.977V179.785C39.0859 183.847 41.5994 187.708 46.6405 190.622L129.612 238.473C140.962 245.021 160.812 244.237 173.952 236.728L244.127 196.586C251.431 192.404 255.112 187.031 254.997 181.951V181.937Z" fill="url(#paint0_linear_19298_6915)"/>
<path opacity="0.8" d="M129.626 227.651L46.6545 179.792C35.3047 173.252 36.7512 161.852 49.884 154.335L120.059 114.193C133.199 106.677 153.049 105.893 164.399 112.441L247.371 160.292C258.699 166.839 257.253 178.239 244.091 185.756L173.916 225.898C160.826 233.415 140.976 234.198 129.626 227.651Z" fill="#52FCFF"/>
<path d="M77.004 150.75L154.209 151.39V162.078C154.209 167.78 150.431 173.471 142.897 177.818C127.819 186.49 103.383 186.49 88.3046 177.818C80.7709 173.482 77.004 167.78 77.004 162.078V150.75Z" fill="url(#paint1_linear_19298_6915)"/>
<path d="M115.606 174.035C136.926 174.035 154.209 164.071 154.209 151.78C154.209 139.489 136.926 129.525 115.606 129.525C94.2869 129.525 77.004 139.489 77.004 151.78C77.004 164.071 94.2869 174.035 115.606 174.035Z" fill="#16E3BA"/>
<path fill-rule="evenodd" clip-rule="evenodd" d="M92.0876 137.566C86.0835 141.027 82.535 145.712 82.535 150.751C82.535 155.791 86.0835 160.475 92.0876 163.936C98.0745 167.388 106.388 169.543 115.606 169.543C124.825 169.543 133.138 167.388 139.125 163.936C145.129 160.475 148.678 155.791 148.678 150.751C148.678 145.712 145.129 141.027 139.125 137.566C133.138 134.115 124.825 131.96 115.606 131.96C106.388 131.96 98.0745 134.115 92.0876 137.566ZM91.4417 136.449C97.658 132.866 106.203 130.67 115.606 130.67C125.01 130.67 133.555 132.866 139.771 136.449C145.97 140.023 149.97 145.056 149.97 150.751C149.97 156.447 145.97 161.48 139.771 165.054C133.555 168.637 125.01 170.833 115.606 170.833C106.203 170.833 97.658 168.637 91.4417 165.054C85.2425 161.48 81.2432 156.447 81.2432 150.751C81.2432 145.056 85.2425 140.023 91.4417 136.449Z" fill="#0CDDB3"/>
<path d="M77.004 138.102L154.209 138.741V149.44C154.209 155.132 150.431 160.833 142.897 165.17C127.819 173.842 103.383 173.842 88.3046 165.17C80.7709 160.833 77.004 155.132 77.004 149.44V138.102Z" fill="url(#paint2_linear_19298_6915)"/>
<path d="M115.606 161.397C136.926 161.397 154.209 151.433 154.209 139.142C154.209 126.851 136.926 116.887 115.606 116.887C94.2869 116.887 77.004 126.851 77.004 139.142C77.004 151.433 94.2869 161.397 115.606 161.397Z" fill="#16E3BA"/>
<path fill-rule="evenodd" clip-rule="evenodd" d="M92.0876 124.916C86.0835 128.377 82.535 133.062 82.535 138.101C82.535 143.14 86.0835 147.825 92.0876 151.286C98.0745 154.737 106.388 156.892 115.606 156.892C124.825 156.892 133.138 154.737 139.125 151.286C145.129 147.825 148.678 143.14 148.678 138.101C148.678 133.062 145.129 128.377 139.125 124.916C133.138 121.465 124.825 119.31 115.606 119.31C106.388 119.31 98.0745 121.465 92.0876 124.916ZM91.4417 123.799C97.658 120.215 106.203 118.02 115.606 118.02C125.01 118.02 133.555 120.215 139.771 123.799C145.97 127.372 149.97 132.406 149.97 138.101C149.97 143.796 145.97 148.83 139.771 152.403C133.555 155.987 125.01 158.182 115.606 158.182C106.203 158.182 97.658 155.987 91.4417 152.403C85.2425 148.83 81.2432 143.796 81.2432 138.101C81.2432 132.406 85.2425 127.372 91.4417 123.799Z" fill="#0CDDB3"/>
<path d="M77.004 125.473L154.209 126.112V136.801C154.209 142.503 150.431 148.194 142.897 152.541C127.819 161.213 103.383 161.213 88.3046 152.541C80.7709 148.205 77.004 142.503 77.004 136.801V125.473Z" fill="url(#paint3_linear_19298_6915)"/>
<path d="M115.606 148.746C136.926 148.746 154.209 138.782 154.209 126.491C154.209 114.2 136.926 104.236 115.606 104.236C94.2869 104.236 77.004 114.2 77.004 126.491C77.004 138.782 94.2869 148.746 115.606 148.746Z" fill="#16E3BA"/>
<path fill-rule="evenodd" clip-rule="evenodd" d="M115.606 106.669C107.062 106.669 98.5529 108.549 92.0903 112.274C85.6244 116 82.5403 120.796 82.5416 125.46C82.5428 130.124 85.6298 134.921 92.0905 138.647C98.5475 142.371 107.057 144.252 115.602 144.252C124.148 144.252 132.66 142.371 139.122 138.647C145.588 134.915 148.675 130.119 148.675 125.456C148.675 120.794 145.588 116 139.122 112.274C132.66 108.549 124.15 106.669 115.606 106.669ZM115.606 105.379C124.317 105.379 133.063 107.292 139.768 111.156C146.469 115.018 149.967 120.17 149.967 125.456C149.967 130.742 146.47 135.897 139.768 139.764L139.768 139.764C133.063 143.628 124.314 145.542 115.602 145.542C106.89 145.542 98.1442 143.628 91.4444 139.764C84.7481 135.902 81.2512 130.748 81.2498 125.461C81.2483 120.173 84.7427 115.018 91.4446 111.156C98.1497 107.292 106.895 105.379 115.606 105.379Z" fill="#0CDDB3"/>
<path d="M77.004 112.811L154.209 113.45V124.149C154.209 129.84 150.431 135.542 142.897 139.889C127.819 148.561 103.383 148.561 88.3046 139.889C80.7709 135.553 77.004 129.84 77.004 124.149V112.811Z" fill="url(#paint4_linear_19298_6915)"/>
<path d="M142.897 129.591C127.819 138.263 103.383 138.263 88.3047 129.591C73.2263 120.919 73.2372 106.827 88.3047 98.1545C103.372 89.4824 127.819 89.4824 142.897 98.1545C157.976 106.827 157.976 120.897 142.897 129.591Z" fill="#16E3BA"/>
<path fill-rule="evenodd" clip-rule="evenodd" d="M92.0876 99.6269C86.0835 103.088 82.535 107.773 82.535 112.812C82.535 117.851 86.0835 122.536 92.0876 125.997C98.0745 129.448 106.388 131.603 115.606 131.603C124.825 131.603 133.138 129.448 139.125 125.997C145.129 122.536 148.678 117.851 148.678 112.812C148.678 107.773 145.129 103.088 139.125 99.6269C133.138 96.1757 124.825 94.0205 115.606 94.0205C106.388 94.0205 98.0745 96.1757 92.0876 99.6269ZM91.4417 98.5097C97.658 94.9263 106.203 92.7305 115.606 92.7305C125.01 92.7305 133.555 94.9263 139.771 98.5097C145.97 102.083 149.97 107.117 149.97 112.812C149.97 118.507 145.97 123.541 139.771 127.114C133.555 130.698 125.01 132.893 115.606 132.893C106.203 132.893 97.658 130.698 91.4417 127.114C85.2425 123.541 81.2432 118.507 81.2432 112.812C81.2432 107.117 85.2425 102.083 91.4417 98.5097Z" fill="#0CDDB3"/>
<path d="M77.004 100.172L154.209 100.811V111.5C154.209 117.202 150.431 122.893 142.897 127.24C127.819 135.912 103.383 135.912 88.3046 127.24C80.7709 122.904 77.004 117.202 77.004 111.5V100.172Z" fill="url(#paint5_linear_19298_6915)"/>
<path d="M142.897 116.941C127.819 125.613 103.383 125.613 88.3048 116.941C73.2265 108.269 73.2373 94.1763 88.3048 85.5041C103.372 76.832 127.819 76.832 142.897 85.5041C157.976 94.1763 157.976 108.247 142.897 116.941Z" fill="url(#paint6_linear_19298_6915)"/>
<path d="M115.606 119.607C134.228 119.607 149.324 110.905 149.324 100.171C149.324 89.4364 134.228 80.7344 115.606 80.7344C96.9847 80.7344 81.8889 89.4364 81.8889 100.171C81.8889 110.905 96.9847 119.607 115.606 119.607Z" fill="url(#paint7_linear_19298_6915)"/>
<path fill-rule="evenodd" clip-rule="evenodd" d="M130.084 93.4332C129.379 93.0271 128.252 93.1083 127.548 93.5145L123.743 95.7077L120.08 94.8142L122.475 93.4332C123.18 93.0271 123.321 92.3772 122.616 91.9711C121.912 91.5649 120.785 91.5649 120.08 91.9711L116.628 93.9612L101.552 90.3058C100.848 90.1434 100.143 90.2246 99.5798 90.5495C99.0867 90.8338 98.9458 91.3212 99.1571 91.6868L105.638 100.216L102.257 102.166C101.552 102.572 101.411 103.222 102.116 103.628C102.82 104.034 103.948 104.034 104.652 103.628L107.118 102.206L108.668 104.318L104.934 106.471C104.229 106.877 104.088 107.527 104.793 107.933C105.497 108.339 106.625 108.339 107.329 107.933L110.217 106.268L115.642 113.294C115.994 113.822 117.051 114.025 117.967 113.822C118.178 113.782 118.319 113.7 118.46 113.619C118.953 113.335 119.164 112.888 118.883 112.482L113.035 104.806L124.448 98.2259L137.974 101.556C138.678 101.719 139.383 101.638 139.946 101.313C140.087 101.231 140.228 101.15 140.369 100.988C140.721 100.46 140.369 99.8505 139.453 99.6474L127.195 96.6419L130.084 94.9766C130.788 94.4892 130.859 93.7988 130.084 93.4332ZM104.3 93.1895L113.81 95.5046L108.386 98.632L104.3 93.1895ZM110.006 100.622L111.556 102.734L120.996 97.2918L117.333 96.3982L110.006 100.622Z" fill="white"/>
<path d="M132.004 174.225L209.209 174.864V185.553C209.209 191.255 205.431 196.946 197.897 201.293C182.819 209.965 158.383 209.965 143.305 201.293C135.771 196.956 132.004 191.255 132.004 185.553V174.225Z" fill="url(#paint8_linear_19298_6915)"/>
<path d="M170.606 197.51C191.926 197.51 209.209 187.546 209.209 175.255C209.209 162.964 191.926 153 170.606 153C149.287 153 132.004 162.964 132.004 175.255C132.004 187.546 149.287 197.51 170.606 197.51Z" fill="#16E3BA"/>
<path d="M132.004 161.574L209.209 162.214V172.913C209.209 178.604 205.431 184.306 197.897 188.642C182.819 197.314 158.383 197.314 143.305 188.642C135.771 184.306 132.004 178.604 132.004 172.913V161.574Z" fill="url(#paint9_linear_19298_6915)"/>
<path d="M132.004 162.225L209.209 162.864V173.553C209.209 179.255 205.431 184.946 197.897 189.293C182.819 197.965 158.383 197.965 143.305 189.293C135.771 184.956 132.004 179.255 132.004 173.553V162.225Z" fill="url(#paint10_linear_19298_6915)"/>
<path d="M170.606 185.51C191.926 185.51 209.209 175.546 209.209 163.255C209.209 150.964 191.926 141 170.606 141C149.287 141 132.004 150.964 132.004 163.255C132.004 175.546 149.287 185.51 170.606 185.51Z" fill="#16E3BA"/>
<path d="M132.004 149.574L209.209 150.214V160.913C209.209 166.604 205.431 172.306 197.897 176.642C182.819 185.314 158.383 185.314 143.305 176.642C135.771 172.306 132.004 166.604 132.004 160.913V149.574Z" fill="url(#paint11_linear_19298_6915)"/>
<path d="M132.004 150.225L209.209 150.864V161.553C209.209 167.255 205.431 172.946 197.897 177.293C182.819 185.965 158.383 185.965 143.305 177.293C135.771 172.956 132.004 167.255 132.004 161.553V150.225Z" fill="url(#paint12_linear_19298_6915)"/>
<path d="M170.606 173.51C191.926 173.51 209.209 163.546 209.209 151.255C209.209 138.964 191.926 129 170.606 129C149.287 129 132.004 138.964 132.004 151.255C132.004 163.546 149.287 173.51 170.606 173.51Z" fill="#16E3BA"/>
<path d="M132.004 137.574L209.209 138.214V148.913C209.209 154.604 205.431 160.306 197.897 164.642C182.819 173.314 158.383 173.314 143.305 164.642C135.771 160.306 132.004 154.604 132.004 148.913V137.574Z" fill="url(#paint13_linear_19298_6915)"/>
<path d="M132.004 137.75L209.209 138.39V149.078C209.209 154.78 205.431 160.471 197.897 164.818C182.819 173.49 158.383 173.49 143.305 164.818C135.771 160.482 132.004 154.78 132.004 149.078V137.75Z" fill="url(#paint14_linear_19298_6915)"/>
<path d="M170.606 161.035C191.926 161.035 209.209 151.071 209.209 138.78C209.209 126.489 191.926 116.525 170.606 116.525C149.287 116.525 132.004 126.489 132.004 138.78C132.004 151.071 149.287 161.035 170.606 161.035Z" fill="#16E3BA"/>
<path fill-rule="evenodd" clip-rule="evenodd" d="M147.088 124.566C141.084 128.027 137.535 132.712 137.535 137.751C137.535 142.791 141.084 147.475 147.088 150.936C153.075 154.388 161.388 156.543 170.606 156.543C179.825 156.543 188.138 154.388 194.125 150.936C200.129 147.475 203.678 142.791 203.678 137.751C203.678 132.712 200.129 128.027 194.125 124.566C188.138 121.115 179.825 118.96 170.606 118.96C161.388 118.96 153.075 121.115 147.088 124.566ZM146.442 123.449C152.658 119.866 161.203 117.67 170.606 117.67C180.01 117.67 188.555 119.866 194.771 123.449C200.97 127.023 204.97 132.056 204.97 137.751C204.97 143.447 200.97 148.48 194.771 152.054C188.555 155.637 180.01 157.833 170.606 157.833C161.203 157.833 152.658 155.637 146.442 152.054C140.242 148.48 136.243 143.447 136.243 137.751C136.243 132.056 140.242 127.023 146.442 123.449Z" fill="#0CDDB3"/>
<path d="M132.004 125.102L209.209 125.741V136.44C209.209 142.132 205.431 147.833 197.897 152.17C182.819 160.842 158.383 160.842 143.305 152.17C135.771 147.833 132.004 142.132 132.004 136.44V125.102Z" fill="url(#paint15_linear_19298_6915)"/>
<path d="M170.606 148.397C191.926 148.397 209.209 138.433 209.209 126.142C209.209 113.851 191.926 103.887 170.606 103.887C149.287 103.887 132.004 113.851 132.004 126.142C132.004 138.433 149.287 148.397 170.606 148.397Z" fill="#16E3BA"/>
<path fill-rule="evenodd" clip-rule="evenodd" d="M147.088 111.916C141.084 115.377 137.535 120.062 137.535 125.101C137.535 130.14 141.084 134.825 147.088 138.286C153.075 141.737 161.388 143.892 170.606 143.892C179.825 143.892 188.138 141.737 194.125 138.286C200.129 134.825 203.678 130.14 203.678 125.101C203.678 120.062 200.129 115.377 194.125 111.916C188.138 108.465 179.825 106.31 170.606 106.31C161.388 106.31 153.075 108.465 147.088 111.916ZM146.442 110.799C152.658 107.215 161.203 105.02 170.606 105.02C180.01 105.02 188.555 107.215 194.771 110.799C200.97 114.372 204.97 119.406 204.97 125.101C204.97 130.796 200.97 135.83 194.771 139.403C188.555 142.987 180.01 145.182 170.606 145.182C161.203 145.182 152.658 142.987 146.442 139.403C140.242 135.83 136.243 130.796 136.243 125.101C136.243 119.406 140.242 114.372 146.442 110.799Z" fill="#0CDDB3"/>
<path d="M132.004 112.473L209.209 113.112V123.801C209.209 129.503 205.431 135.194 197.897 139.541C182.819 148.213 158.383 148.213 143.305 139.541C135.771 135.205 132.004 129.503 132.004 123.801V112.473Z" fill="url(#paint16_linear_19298_6915)"/>
<path d="M170.606 135.746C191.926 135.746 209.209 125.782 209.209 113.491C209.209 101.2 191.926 91.2363 170.606 91.2363C149.287 91.2363 132.004 101.2 132.004 113.491C132.004 125.782 149.287 135.746 170.606 135.746Z" fill="#16E3BA"/>
<path fill-rule="evenodd" clip-rule="evenodd" d="M170.606 93.6689C162.062 93.6689 153.553 95.5494 147.09 99.2736C140.624 103 137.54 107.796 137.542 112.46C137.543 117.124 140.63 121.921 147.09 125.647C153.548 129.371 162.057 131.252 170.602 131.252C179.148 131.252 187.66 129.371 194.122 125.647C200.588 121.915 203.675 117.119 203.675 112.456C203.675 107.794 200.588 103 194.122 99.2736C187.66 95.5494 179.15 93.6689 170.606 93.6689ZM170.606 92.3789C179.317 92.3789 188.063 94.2924 194.768 98.1564C201.469 102.018 204.967 107.17 204.967 112.456C204.967 117.742 201.47 122.897 194.768 126.764L194.768 126.764C188.063 130.628 179.314 132.542 170.602 132.542C161.89 132.542 153.144 130.628 146.444 126.764C139.748 122.902 136.251 117.748 136.25 112.461C136.248 107.173 139.743 102.018 146.445 98.1564C153.15 94.2924 161.895 92.3789 170.606 92.3789Z" fill="#0CDDB3"/>
<path d="M132.004 99.8105L209.209 100.45V111.149C209.209 116.84 205.431 122.542 197.897 126.889C182.819 135.561 158.383 135.561 143.305 126.889C135.771 122.553 132.004 116.84 132.004 111.149V99.8105Z" fill="url(#paint17_linear_19298_6915)"/>
<path d="M197.897 116.591C182.819 125.263 158.383 125.263 143.305 116.591C128.226 107.919 128.237 93.8267 143.305 85.1545C158.372 76.4824 182.819 76.4824 197.897 85.1545C212.976 93.8267 212.976 107.897 197.897 116.591Z" fill="#16E3BA"/>
<path fill-rule="evenodd" clip-rule="evenodd" d="M147.088 86.6269C141.084 90.0879 137.535 94.7727 137.535 99.8119C137.535 104.851 141.084 109.536 147.088 112.997C153.075 116.448 161.388 118.603 170.606 118.603C179.825 118.603 188.138 116.448 194.125 112.997C200.129 109.536 203.678 104.851 203.678 99.8119C203.678 94.7727 200.129 90.0879 194.125 86.6269C188.138 83.1757 179.825 81.0205 170.606 81.0205C161.388 81.0205 153.075 83.1757 147.088 86.6269ZM146.442 85.5097C152.658 81.9263 161.203 79.7305 170.606 79.7305C180.01 79.7305 188.555 81.9263 194.771 85.5097C200.97 89.0832 204.97 94.1167 204.97 99.8119C204.97 105.507 200.97 110.541 194.771 114.114C188.555 117.698 180.01 119.893 170.606 119.893C161.203 119.893 152.658 117.698 146.442 114.114C140.242 110.541 136.243 105.507 136.243 99.8119C136.243 94.1167 140.242 89.0832 146.442 85.5097Z" fill="#0CDDB3"/>
<path d="M132.004 87.1719L209.209 87.8114V98.4999C209.209 104.202 205.431 109.893 197.897 114.24C182.819 122.912 158.383 122.912 143.305 114.24C135.771 109.904 132.004 104.202 132.004 98.4999V87.1719Z" fill="url(#paint18_linear_19298_6915)"/>
<path d="M197.897 103.941C182.819 112.613 158.383 112.613 143.305 103.941C128.226 95.2685 128.237 81.1763 143.305 72.5041C158.372 63.832 182.819 63.832 197.897 72.5041C212.976 81.1763 212.976 95.2468 197.897 103.941Z" fill="url(#paint19_linear_19298_6915)"/>
<path d="M170.606 106.607C189.228 106.607 204.324 97.9053 204.324 87.1708C204.324 76.4364 189.228 67.7344 170.606 67.7344C151.985 67.7344 136.889 76.4364 136.889 87.1708C136.889 97.9053 151.985 106.607 170.606 106.607Z" fill="url(#paint20_linear_19298_6915)"/>
<path fill-rule="evenodd" clip-rule="evenodd" d="M185.084 80.4332C184.379 80.0271 183.252 80.1083 182.548 80.5145L178.743 82.7077L175.08 81.8142L177.475 80.4332C178.18 80.0271 178.321 79.3772 177.616 78.9711C176.912 78.5649 175.785 78.5649 175.08 78.9711L171.628 80.9612L156.552 77.3058C155.848 77.1434 155.143 77.2246 154.58 77.5495C154.087 77.8338 153.946 78.3212 154.157 78.6868L160.638 87.216L157.257 89.1656C156.552 89.5717 156.411 90.2216 157.116 90.6278C157.82 91.0339 158.948 91.0339 159.652 90.6278L162.118 89.2062L163.668 91.3182L159.934 93.4708C159.229 93.877 159.088 94.5269 159.793 94.933C160.497 95.3392 161.625 95.3392 162.329 94.933L165.217 93.2678L170.642 100.294C170.994 100.822 172.051 101.025 172.967 100.822C173.178 100.782 173.319 100.7 173.46 100.619C173.953 100.335 174.164 99.8881 173.883 99.482L168.035 91.8056L179.448 85.2259L192.974 88.5564C193.678 88.7188 194.383 88.6376 194.946 88.3127C195.087 88.2314 195.228 88.1502 195.369 87.9877C195.721 87.4597 195.369 86.8505 194.453 86.6474L182.195 83.6419L185.084 81.9766C185.788 81.4892 185.859 80.7988 185.084 80.4332ZM159.3 80.1895L168.81 82.5046L163.386 85.632L159.3 80.1895ZM165.006 87.6222L166.556 89.7343L175.996 84.2918L172.333 83.3982L165.006 87.6222Z" fill="white"/>
<defs>
<linearGradient id="paint0_linear_19298_6915" x1="39.0002" y1="242.915" x2="255" y2="242.915" gradientUnits="userSpaceOnUse">
<stop stop-color="#17D1AA"/>
<stop offset="0.15" stop-color="#1ACBAF"/>
<stop offset="0.37" stop-color="#21B8BC"/>
<stop offset="0.62" stop-color="#2E9BD3"/>
<stop offset="0.89" stop-color="#3F71F1"/>
<stop offset="1" stop-color="#475FFF"/>
</linearGradient>
<linearGradient id="paint1_linear_19298_6915" x1="77.0041" y1="184.322" x2="154.209" y2="184.322" gradientUnits="userSpaceOnUse">
<stop stop-color="#17D1AA"/>
<stop offset="0.15" stop-color="#1ACBAF"/>
<stop offset="0.37" stop-color="#21B8BC"/>
<stop offset="0.62" stop-color="#2E9BD3"/>
<stop offset="0.89" stop-color="#3F71F1"/>
<stop offset="1" stop-color="#475FFF"/>
</linearGradient>
<linearGradient id="paint2_linear_19298_6915" x1="77.0041" y1="171.674" x2="154.209" y2="171.674" gradientUnits="userSpaceOnUse">
<stop stop-color="#17D1AA"/>
<stop offset="0.15" stop-color="#1ACBAF"/>
<stop offset="0.37" stop-color="#21B8BC"/>
<stop offset="0.62" stop-color="#2E9BD3"/>
<stop offset="0.89" stop-color="#3F71F1"/>
<stop offset="1" stop-color="#475FFF"/>
</linearGradient>
<linearGradient id="paint3_linear_19298_6915" x1="77.0041" y1="159.045" x2="154.209" y2="159.045" gradientUnits="userSpaceOnUse">
<stop stop-color="#17D1AA"/>
<stop offset="0.15" stop-color="#1ACBAF"/>
<stop offset="0.37" stop-color="#21B8BC"/>
<stop offset="0.62" stop-color="#2E9BD3"/>
<stop offset="0.89" stop-color="#3F71F1"/>
<stop offset="1" stop-color="#475FFF"/>
</linearGradient>
<linearGradient id="paint4_linear_19298_6915" x1="77.0041" y1="146.394" x2="154.209" y2="146.394" gradientUnits="userSpaceOnUse">
<stop stop-color="#17D1AA"/>
<stop offset="0.15" stop-color="#1ACBAF"/>
<stop offset="0.37" stop-color="#21B8BC"/>
<stop offset="0.62" stop-color="#2E9BD3"/>
<stop offset="0.89" stop-color="#3F71F1"/>
<stop offset="1" stop-color="#475FFF"/>
</linearGradient>
<linearGradient id="paint5_linear_19298_6915" x1="77.0041" y1="133.744" x2="154.209" y2="133.744" gradientUnits="userSpaceOnUse">
<stop stop-color="#17D1AA"/>
<stop offset="0.15" stop-color="#1ACBAF"/>
<stop offset="0.37" stop-color="#21B8BC"/>
<stop offset="0.62" stop-color="#2E9BD3"/>
<stop offset="0.89" stop-color="#3F71F1"/>
<stop offset="1" stop-color="#475FFF"/>
</linearGradient>
<linearGradient id="paint6_linear_19298_6915" x1="77.0002" y1="123.445" x2="154.206" y2="123.445" gradientUnits="userSpaceOnUse">
<stop stop-color="#17D1AA"/>
<stop offset="0.15" stop-color="#1ACBAF"/>
<stop offset="0.37" stop-color="#21B8BC"/>
<stop offset="0.62" stop-color="#2E9BD3"/>
<stop offset="0.89" stop-color="#3F71F1"/>
<stop offset="1" stop-color="#475FFF"/>
</linearGradient>
<linearGradient id="paint7_linear_19298_6915" x1="123" y1="80.7344" x2="106.687" y2="120.491" gradientUnits="userSpaceOnUse">
<stop stop-color="#17D1AA"/>
<stop offset="0.15" stop-color="#1ACBAF"/>
<stop offset="0.37" stop-color="#21B8BC"/>
<stop offset="0.62" stop-color="#2E9BD3"/>
<stop offset="0.89" stop-color="#3F71F1"/>
<stop offset="1" stop-color="#475FFF"/>
</linearGradient>
<linearGradient id="paint8_linear_19298_6915" x1="132.004" y1="207.797" x2="209.209" y2="207.797" gradientUnits="userSpaceOnUse">
<stop stop-color="#17D1AA"/>
<stop offset="0.15" stop-color="#1ACBAF"/>
<stop offset="0.37" stop-color="#21B8BC"/>
<stop offset="0.62" stop-color="#2E9BD3"/>
<stop offset="0.89" stop-color="#3F71F1"/>
<stop offset="1" stop-color="#475FFF"/>
</linearGradient>
<linearGradient id="paint9_linear_19298_6915" x1="132.004" y1="195.146" x2="209.209" y2="195.146" gradientUnits="userSpaceOnUse">
<stop stop-color="#17D1AA"/>
<stop offset="0.15" stop-color="#1ACBAF"/>
<stop offset="0.37" stop-color="#21B8BC"/>
<stop offset="0.62" stop-color="#2E9BD3"/>
<stop offset="0.89" stop-color="#3F71F1"/>
<stop offset="1" stop-color="#475FFF"/>
</linearGradient>
<linearGradient id="paint10_linear_19298_6915" x1="132.004" y1="195.797" x2="209.209" y2="195.797" gradientUnits="userSpaceOnUse">
<stop stop-color="#17D1AA"/>
<stop offset="0.15" stop-color="#1ACBAF"/>
<stop offset="0.37" stop-color="#21B8BC"/>
<stop offset="0.62" stop-color="#2E9BD3"/>
<stop offset="0.89" stop-color="#3F71F1"/>
<stop offset="1" stop-color="#475FFF"/>
</linearGradient>
<linearGradient id="paint11_linear_19298_6915" x1="132.004" y1="183.146" x2="209.209" y2="183.146" gradientUnits="userSpaceOnUse">
<stop stop-color="#17D1AA"/>
<stop offset="0.15" stop-color="#1ACBAF"/>
<stop offset="0.37" stop-color="#21B8BC"/>
<stop offset="0.62" stop-color="#2E9BD3"/>
<stop offset="0.89" stop-color="#3F71F1"/>
<stop offset="1" stop-color="#475FFF"/>
</linearGradient>
<linearGradient id="paint12_linear_19298_6915" x1="132.004" y1="183.797" x2="209.209" y2="183.797" gradientUnits="userSpaceOnUse">
<stop stop-color="#17D1AA"/>
<stop offset="0.15" stop-color="#1ACBAF"/>
<stop offset="0.37" stop-color="#21B8BC"/>
<stop offset="0.62" stop-color="#2E9BD3"/>
<stop offset="0.89" stop-color="#3F71F1"/>
<stop offset="1" stop-color="#475FFF"/>
</linearGradient>
<linearGradient id="paint13_linear_19298_6915" x1="132.004" y1="171.146" x2="209.209" y2="171.146" gradientUnits="userSpaceOnUse">
<stop stop-color="#17D1AA"/>
<stop offset="0.15" stop-color="#1ACBAF"/>
<stop offset="0.37" stop-color="#21B8BC"/>
<stop offset="0.62" stop-color="#2E9BD3"/>
<stop offset="0.89" stop-color="#3F71F1"/>
<stop offset="1" stop-color="#475FFF"/>
</linearGradient>
<linearGradient id="paint14_linear_19298_6915" x1="132.004" y1="171.322" x2="209.209" y2="171.322" gradientUnits="userSpaceOnUse">
<stop stop-color="#17D1AA"/>
<stop offset="0.15" stop-color="#1ACBAF"/>
<stop offset="0.37" stop-color="#21B8BC"/>
<stop offset="0.62" stop-color="#2E9BD3"/>
<stop offset="0.89" stop-color="#3F71F1"/>
<stop offset="1" stop-color="#475FFF"/>
</linearGradient>
<linearGradient id="paint15_linear_19298_6915" x1="132.004" y1="158.674" x2="209.209" y2="158.674" gradientUnits="userSpaceOnUse">
<stop stop-color="#17D1AA"/>
<stop offset="0.15" stop-color="#1ACBAF"/>
<stop offset="0.37" stop-color="#21B8BC"/>
<stop offset="0.62" stop-color="#2E9BD3"/>
<stop offset="0.89" stop-color="#3F71F1"/>
<stop offset="1" stop-color="#475FFF"/>
</linearGradient>
<linearGradient id="paint16_linear_19298_6915" x1="132.004" y1="146.045" x2="209.209" y2="146.045" gradientUnits="userSpaceOnUse">
<stop stop-color="#17D1AA"/>
<stop offset="0.15" stop-color="#1ACBAF"/>
<stop offset="0.37" stop-color="#21B8BC"/>
<stop offset="0.62" stop-color="#2E9BD3"/>
<stop offset="0.89" stop-color="#3F71F1"/>
<stop offset="1" stop-color="#475FFF"/>
</linearGradient>
<linearGradient id="paint17_linear_19298_6915" x1="132.004" y1="133.394" x2="209.209" y2="133.394" gradientUnits="userSpaceOnUse">
<stop stop-color="#17D1AA"/>
<stop offset="0.15" stop-color="#1ACBAF"/>
<stop offset="0.37" stop-color="#21B8BC"/>
<stop offset="0.62" stop-color="#2E9BD3"/>
<stop offset="0.89" stop-color="#3F71F1"/>
<stop offset="1" stop-color="#475FFF"/>
</linearGradient>
<linearGradient id="paint18_linear_19298_6915" x1="132.004" y1="120.744" x2="209.209" y2="120.744" gradientUnits="userSpaceOnUse">
<stop stop-color="#17D1AA"/>
<stop offset="0.15" stop-color="#1ACBAF"/>
<stop offset="0.37" stop-color="#21B8BC"/>
<stop offset="0.62" stop-color="#2E9BD3"/>
<stop offset="0.89" stop-color="#3F71F1"/>
<stop offset="1" stop-color="#475FFF"/>
</linearGradient>
<linearGradient id="paint19_linear_19298_6915" x1="132" y1="110.445" x2="209.206" y2="110.445" gradientUnits="userSpaceOnUse">
<stop stop-color="#17D1AA"/>
<stop offset="0.15" stop-color="#1ACBAF"/>
<stop offset="0.37" stop-color="#21B8BC"/>
<stop offset="0.62" stop-color="#2E9BD3"/>
<stop offset="0.89" stop-color="#3F71F1"/>
<stop offset="1" stop-color="#475FFF"/>
</linearGradient>
<linearGradient id="paint20_linear_19298_6915" x1="178" y1="67.7344" x2="161.687" y2="107.491" gradientUnits="userSpaceOnUse">
<stop stop-color="#17D1AA"/>
<stop offset="0.15" stop-color="#1ACBAF"/>
<stop offset="0.37" stop-color="#21B8BC"/>
<stop offset="0.62" stop-color="#2E9BD3"/>
<stop offset="0.89" stop-color="#3F71F1"/>
<stop offset="1" stop-color="#475FFF"/>
</linearGradient>
</defs>
</svg>
